<svg id="svg" version="1.1" xmlns="http://www.w3.org/2000/svg" style="display: block;" viewBox="0 0 1024 1024"><path xmlns="http://www.w3.org/2000/svg" d="M0 0 C1.27875 -0.061875 2.5575 -0.12375 3.875 -0.1875 C4.90625 -0.125625 5.9375 -0.06375 7 0 C6.67 1.32 6.34 2.64 6 4 C4.65550781 4.69996094 3.31101562 5.39992188 1.92578125 6.12109375 C1.04656006 6.49218262 0.16733887 6.86327148 -0.73852539 7.24560547 C-2.19826782 7.83559326 -2.19826782 7.83559326 -3.6875 8.4375 C-4.7077124 8.86434082 -5.7279248 9.29118164 -6.77905273 9.73095703 C-7.85485596 10.18196777 -8.93065918 10.63297852 -10.0390625 11.09765625 C-11.17118164 11.56703613 -12.30330078 12.03641602 -13.46972656 12.52001953 C-14.6347168 13.00841309 -15.79970703 13.49680664 -17 14 C-18.17014648 14.50772949 -19.34029297 15.01545898 -20.54589844 15.53857422 C-21.73473633 16.06080566 -22.92357422 16.58303711 -24.1484375 17.12109375 C-25.36168701 17.65412109 -26.57493652 18.18714844 -27.82495117 18.73632812 C-29.05834229 19.27708984 -30.2917334 19.81785156 -31.5625 20.375 C-32.81458252 20.91962891 -34.06666504 21.46425781 -35.35668945 22.02539062 C-36.62472412 22.57259766 -37.89275879 23.11980469 -39.19921875 23.68359375 C-40.47845215 24.23128418 -41.75768555 24.77897461 -43.07568359 25.34326172 C-44.37070801 25.88998535 -45.66573242 26.43670898 -47 27 C-48.32209473 27.54543457 -49.64418945 28.09086914 -51.00634766 28.65283203 C-52.33069824 29.19149902 -53.65504883 29.73016602 -55.01953125 30.28515625 C-56.32688232 30.81189941 -57.6342334 31.33864258 -58.98120117 31.88134766 C-60.26615479 32.39487793 -61.5511084 32.9084082 -62.875 33.4375 C-64.13352783 33.93813965 -65.39205566 34.4387793 -66.6887207 34.95458984 C-68.50182739 35.67122803 -68.50182739 35.67122803 -70.3515625 36.40234375 C-71.49786133 36.85206543 -72.64416016 37.30178711 -73.82519531 37.76513672 C-74.87288086 38.1726416 -75.92056641 38.58014648 -77 39 C-77.89041992 39.3417627 -78.78083984 39.68352539 -79.69824219 40.03564453 C-80.48618164 40.3345459 -81.27412109 40.63344727 -82.0859375 40.94140625 C-83.46007812 41.45574219 -84.83421875 41.97007812 -86.25 42.5 C-87.44882812 42.94214844 -88.64765625 43.38429688 -89.8828125 43.83984375 C-90.91148437 44.22269531 -91.94015625 44.60554687 -93 45 C-93.88429688 45.35191406 -94.76859375 45.70382812 -95.6796875 46.06640625 C-96.89011719 46.55947266 -96.89011719 46.55947266 -98.125 47.0625 C-98.88425781 47.36671875 -99.64351562 47.6709375 -100.42578125 47.984375 C-101.27527344 48.31953125 -102.12476563 48.6546875 -103 49 C-104.75376953 49.68835938 -104.75376953 49.68835938 -106.54296875 50.390625 C-107.78691406 50.85984375 -109.03085937 51.3290625 -110.3125 51.8125 C-111.46363281 52.25207031 -112.61476563 52.69164062 -113.80078125 53.14453125 C-114.85652344 53.42683594 -115.91226563 53.70914063 -117 54 C-117.96292969 53.88011719 -118.92585937 53.76023437 -119.91796875 53.63671875 C-120.60503906 53.42660156 -121.29210937 53.21648438 -122 53 C-121.34 51.68 -120.68 50.36 -120 49 C-119.20891846 48.5244165 -118.41783691 48.04883301 -117.6027832 47.55883789 C-116.09204224 46.89742798 -116.09204224 46.89742798 -114.55078125 46.22265625 C-113.40923584 45.71613525 -112.26769043 45.20961426 -111.09155273 44.68774414 C-109.84446533 44.15141357 -108.59737793 43.61508301 -107.3125 43.0625 C-106.01320557 42.49329834 -104.71391113 41.92409668 -103.37524414 41.33764648 C-101.3603186 40.45894897 -101.3603186 40.45894897 -99.3046875 39.5625 C-97.92506836 38.96953125 -96.54544922 38.3765625 -95.12402344 37.765625 C-93.7630957 37.18296875 -92.40216797 36.6003125 -91 36 C-89.73704102 35.45601562 -88.47408203 34.91203125 -87.17285156 34.3515625 C-85.94276367 33.82304688 -84.71267578 33.29453125 -83.4453125 32.75 C-82.21022949 32.22341797 -80.97514648 31.69683594 -79.70263672 31.15429688 C-78.4601416 30.62900391 -77.21764648 30.10371094 -75.9375 29.5625 C-74.67566895 29.03462891 -73.41383789 28.50675781 -72.11376953 27.96289062 C-70.17800049 27.16141602 -70.17800049 27.16141602 -68.203125 26.34375 C-66.88248047 25.80234375 -65.56183594 25.2609375 -64.20117188 24.703125 C-62.81478516 24.14109375 -61.42839844 23.5790625 -60 23 C-58.48728516 22.39414062 -56.97457031 21.78828125 -55.41601562 21.1640625 C-54.63737656 20.85432999 -53.85873749 20.54459747 -53.0565033 20.22547913 C-52.26957596 19.91388351 -51.48264862 19.6022879 -50.671875 19.28125 C-49.88144302 18.96993637 -49.09101105 18.65862274 -48.27662659 18.33787537 C-47.48803757 18.02842484 -46.69944855 17.7189743 -45.88696289 17.40014648 C-45.10322296 17.09358124 -44.31948303 16.78701599 -43.51199341 16.47116089 C-42.36136917 16.02137375 -42.36136917 16.02137375 -41.1875 15.5625 C-39.74173584 14.99539307 -38.29597168 14.42828613 -36.80639648 13.84399414 C-35.39946533 13.29864014 -33.99253418 12.75328613 -32.54296875 12.19140625 C-31.15513184 11.6617627 -29.76729492 11.13211914 -28.33740234 10.58642578 C-26.90605957 10.06290527 -25.4747168 9.53938477 -24 9 C-23.20756897 8.7298407 -22.41513794 8.4596814 -21.59869385 8.18133545 C-20.78575867 7.91121643 -19.97282349 7.64109741 -19.13525391 7.36279297 C-18.32760086 7.09635483 -17.51994781 6.82991669 -16.68782043 6.55540466 C-15.9000975 6.29864456 -15.11237457 6.04188446 -14.30078125 5.77734375 C-12.85485596 5.31448975 -11.40893066 4.85163574 -9.91918945 4.37475586 C-7.97919067 3.69425171 -7.97919067 3.69425171 -6 3 C-4.91871826 2.45158447 -3.83743652 1.90316895 -2.72338867 1.33813477 C-1.82467041 0.89655029 -0.92595215 0.45496582 0 0 Z " transform="translate(754,530)" style="fill: #6BAE2E;"/></svg>