<svg id="svg" version="1.1" xmlns="http://www.w3.org/2000/svg" style="display: block;" viewBox="0 0 1024 1024"><path xmlns="http://www.w3.org/2000/svg" d="M0 0 C1.65 0 3.3 0 5 0 C5.33 1.32 5.66 2.64 6 4 C5.07413086 4.35263916 4.14826172 4.70527832 3.19433594 5.06860352 C1.88754883 5.56287842 0.58076172 6.05715332 -0.765625 6.56640625 C-2.23064453 7.11570801 -3.69566406 7.66500977 -5.20507812 8.23095703 C-5.98987549 8.52222473 -6.77467285 8.81349243 -7.58325195 9.11358643 C-8.38077881 9.40610291 -9.17830566 9.69861938 -10 10 C-10.78205811 10.28091492 -11.56411621 10.56182983 -12.36987305 10.85125732 C-13.15467041 11.1296344 -13.93946777 11.40801147 -14.74804688 11.69482422 C-15.54416382 11.97522552 -16.34028076 12.25562683 -17.16052246 12.54452515 C-17.9686438 12.82760529 -18.77676514 13.11068542 -19.609375 13.40234375 C-20.43586548 13.69130524 -21.26235596 13.98026672 -22.1138916 14.27798462 C-22.95029175 14.56974579 -23.78669189 14.86150696 -24.6484375 15.16210938 C-25.48987305 15.45496826 -26.33130859 15.74782715 -27.19824219 16.04956055 C-28.04032227 16.34258057 -28.88240234 16.63560059 -29.75 16.9375 C-31.00248535 17.37437134 -31.00248535 17.37437134 -32.28027344 17.82006836 C-33.11333008 18.11083252 -33.94638672 18.40159668 -34.8046875 18.70117188 C-35.63906342 18.99239929 -36.47343933 19.28362671 -37.33309937 19.5836792 C-38.16677032 19.8744635 -39.00044128 20.1652478 -39.859375 20.46484375 C-40.6895816 20.75369446 -41.51978821 21.04254517 -42.37515259 21.34014893 C-43.20735321 21.62976501 -44.03955383 21.9193811 -44.89697266 22.21777344 C-46.14985077 22.65434265 -46.14985077 22.65434265 -47.42803955 23.09973145 C-48.2767865 23.39682007 -49.12553345 23.69390869 -50 24 C-50.88177917 24.31175171 -51.76355835 24.62350342 -52.67205811 24.94470215 C-53.56064514 25.25975708 -54.44923218 25.57481201 -55.36474609 25.89941406 C-56.24737122 26.21133194 -57.12999634 26.52324982 -58.03936768 26.84461975 C-59.32312286 27.29858376 -59.32312286 27.29858376 -60.6328125 27.76171875 C-61.42355164 28.04417953 -62.21429077 28.32664032 -63.0289917 28.61766052 C-63.79431213 28.88780472 -64.55963257 29.15794891 -65.34814453 29.4362793 C-66.88325684 29.95230713 -68.41836914 30.46833496 -70 31 C-70.87506195 31.26063736 -71.7501239 31.52127472 -72.65170288 31.78981018 C-73.53298859 32.04060837 -74.41427429 32.29140656 -75.32226562 32.54980469 C-76.90716797 32.98711914 -78.49207031 33.42443359 -80.125 33.875 C-81.55271729 34.26860718 -81.55271729 34.26860718 -83.00927734 34.67016602 C-83.7770752 34.88342529 -84.54487305 35.09668457 -85.3359375 35.31640625 C-86.23795898 35.57566895 -87.13998047 35.83493164 -88.06933594 36.10205078 C-89.03645508 36.39837402 -90.00357422 36.69469727 -91 37 C-92.09344727 37.3697998 -93.18689453 37.73959961 -94.31347656 38.12060547 C-95.46041992 38.5229541 -96.60736328 38.92530273 -97.7890625 39.33984375 C-99.52325439 39.95206787 -99.52325439 39.95206787 -101.29248047 40.57666016 C-102.43346191 40.9844873 -103.57444336 41.39231445 -104.75 41.8125 C-105.83297363 42.21001465 -106.91594727 42.6075293 -108.03173828 43.01708984 C-109.58610596 43.57517334 -109.58610596 43.57517334 -111.171875 44.14453125 C-112.15736328 44.48307129 -113.14285156 44.82161133 -114.15820312 45.17041016 C-115.56489258 45.58105713 -115.56489258 45.58105713 -117 46 C-117.91201172 46.15903809 -118.82402344 46.31807617 -119.76367188 46.48193359 C-121.00213867 46.62042725 -121.00213867 46.62042725 -122.265625 46.76171875 C-123.49796875 46.84035156 -124.7303125 46.91898437 -126 47 C-126 45.68 -126 44.36 -126 43 C-124.09541016 42.22076172 -124.09541016 42.22076172 -122.15234375 41.42578125 C-121.32653809 41.09022217 -120.50073242 40.75466309 -119.64990234 40.40893555 C-118.75480957 40.04711182 -117.8597168 39.68528809 -116.9375 39.3125 C-116.0295166 38.94745361 -115.1215332 38.58240723 -114.18603516 38.20629883 C-113.26999512 37.84173584 -112.35395508 37.47717285 -111.41015625 37.1015625 C-110.49250488 36.74094727 -109.57485352 36.38033203 -108.62939453 36.00878906 C-107.76169434 35.67588867 -106.89399414 35.34298828 -106 35 C-104.57558594 34.49210937 -103.15117188 33.98421875 -101.68359375 33.4609375 C-100.42675781 33.04070312 -99.16992188 32.62046875 -97.875 32.1875 C-96.69550781 31.8059375 -95.51601563 31.424375 -94.30078125 31.03125 C-92.66689453 30.52078125 -92.66689453 30.52078125 -91 30 C-89.96230469 29.6803125 -88.92460938 29.360625 -87.85546875 29.03125 C-86.93378906 28.7528125 -86.01210938 28.474375 -85.0625 28.1875 C-83.721875 27.795625 -82.38125 27.40375 -81 27 C-81 26.34 -81 25.68 -81 25 C-80.09765625 24.74347656 -79.1953125 24.48695313 -78.265625 24.22265625 C-76.85796875 23.81917969 -75.4503125 23.41570312 -74 23 C-73.11763672 22.74589355 -72.23527344 22.49178711 -71.32617188 22.22998047 C-70.34712891 21.94654785 -69.36808594 21.66311523 -68.359375 21.37109375 C-67.30226318 21.06276611 -66.24515137 20.75443848 -65.15600586 20.43676758 C-64.03202393 20.10700928 -62.90804199 19.77725098 -61.75 19.4375 C-59.97991577 18.91675903 -59.97991577 18.91675903 -58.17407227 18.38549805 C-56.34960571 17.84276245 -56.34960571 17.84276245 -54.48828125 17.2890625 C-53.25029785 16.91555664 -52.01231445 16.54205078 -50.73681641 16.15722656 C-49.50366699 15.7753418 -48.27051758 15.39345703 -47 15 C-45.80938965 14.61295898 -44.6187793 14.22591797 -43.39208984 13.82714844 C-41.6414624 13.24368652 -41.6414624 13.24368652 -39.85546875 12.6484375 C-38.12913208 12.06751343 -38.12913208 12.06751343 -36.36791992 11.47485352 C-35.23588135 11.09127686 -34.10384277 10.7077002 -32.9375 10.3125 C-31.82028564 9.93343506 -30.70307129 9.55437012 -29.55200195 9.16381836 C-28.46234131 8.79651611 -27.37268066 8.42921387 -26.25 8.05078125 C-24.67025391 7.52411865 -24.67025391 7.52411865 -23.05859375 6.98681641 C-22.04925781 6.66116699 -21.03992188 6.33551758 -20 6 C-19.04480469 5.71431152 -18.08960938 5.42862305 -17.10546875 5.13427734 C-16.20441406 4.87727051 -15.30335938 4.62026367 -14.375 4.35546875 C-13.53203369 4.12110107 -12.68906738 3.8867334 -11.82055664 3.64526367 C-11.03414795 3.43232666 -10.24773926 3.21938965 -9.4375 3 C-8.03371094 2.62875 -6.62992188 2.2575 -5.18359375 1.875 C-3.60771484 1.441875 -3.60771484 1.441875 -2 1 C-1.34 0.67 -0.68 0.34 0 0 Z " transform="translate(710,359)" style="fill: #7CB72F;"/></svg>