<svg id="svg" version="1.1" xmlns="http://www.w3.org/2000/svg" style="display: block;" viewBox="0 0 1024 1024"><path xmlns="http://www.w3.org/2000/svg" d="M0 0 C0.99 0.33 1.98 0.66 3 1 C3.94875 2.134375 4.8975 3.26875 5.875 4.4375 C6.39449219 5.16066406 6.91398437 5.88382813 7.44921875 6.62890625 C7.96097656 7.41136719 8.47273438 8.19382812 9 9 C9.46019531 9.79277344 9.92039062 10.58554687 10.39453125 11.40234375 C11.03455078 12.62630859 11.03455078 12.62630859 11.6875 13.875 C12.06261719 14.61492188 12.43773437 15.35484375 12.82421875 16.1171875 C13.21222656 17.06851563 13.60023438 18.01984375 14 19 C14.53625 20.5159375 15.0725 22.031875 15.625 23.59375 C16.00434692 24.89675049 16.00434692 24.89675049 16.39135742 26.22607422 C16.6926355 27.59916748 16.6926355 27.59916748 17 29 C17.08934814 29.93473145 17.17869629 30.86946289 17.27075195 31.83251953 C17.30128662 32.78755371 17.33182129 33.74258789 17.36328125 34.7265625 C17.36231445 36.180625 17.36231445 36.180625 17.36132812 37.6640625 C17.34521484 38.64117188 17.32910156 39.61828125 17.3125 40.625 C17.31572266 41.60984375 17.31894531 42.5946875 17.32226562 43.609375 C17.31517578 44.57617188 17.30808594 45.54296875 17.30078125 46.5390625 C17.26807129 47.47387451 17.23536133 48.40868652 17.20166016 49.37182617 C17.1351123 50.23912354 17.06856445 51.1064209 17 52 C16.58814453 54.11728516 16.58814453 54.11728516 16.16796875 56.27734375 C15.78253906 57.50582031 15.39710938 58.73429688 15 60 C14.54625 61.16402344 14.0925 62.32804688 13.625 63.52734375 C13.08875 64.65269531 12.5525 65.77804687 12 66.9375 C11.37480469 68.14148438 10.74960937 69.34546875 10.10546875 70.5859375 C9.41066406 71.71257812 8.71585937 72.83921875 8 74 C7.25363281 74.89976562 6.50726563 75.79953125 5.73828125 76.7265625 C4.53751953 77.88285156 4.53751953 77.88285156 3.3125 79.0625 C2.44753906 79.7534375 1.58257812 80.444375 0.69140625 81.15625 C-0.19675781 81.7646875 -1.08492188 82.373125 -2 83 C-2.83660156 83.5465625 -3.67320312 84.093125 -4.53515625 84.65625 C-5.43105469 85.1203125 -6.32695312 85.584375 -7.25 86.0625 C-8.24773437 86.42988281 -9.24546875 86.79726563 -10.2734375 87.17578125 C-11.50320313 87.44777344 -12.73296875 87.71976563 -14 88 C-14.81114258 88.10231934 -15.62228516 88.20463867 -16.45800781 88.31005859 C-17.35100586 88.38691895 -18.24400391 88.4637793 -19.1640625 88.54296875 C-20.55878784 88.61584106 -20.55878784 88.61584106 -21.98168945 88.69018555 C-22.93648193 88.70992432 -23.89127441 88.72966309 -24.875 88.75 C-25.8343042 88.74073486 -26.7936084 88.73146973 -27.78198242 88.72192383 C-28.72662354 88.67962646 -29.67126465 88.6373291 -30.64453125 88.59375 C-31.56314941 88.51640625 -32.48176758 88.4390625 -33.42822266 88.359375 C-34.70125244 88.18148437 -34.70125244 88.18148437 -36 88 C-38.01673828 87.42765625 -38.01673828 87.42765625 -40.07421875 86.84375 C-41.22535156 86.3178125 -42.37648438 85.791875 -43.5625 85.25 C-44.63757813 84.61320313 -45.71265625 83.97640625 -46.8203125 83.3203125 C-48.39425781 82.17175781 -48.39425781 82.17175781 -50 81 C-51.15242188 80.06929687 -52.30484375 79.13859375 -53.4921875 78.1796875 C-54.62914062 77.17164063 -55.76609375 76.16359375 -56.9375 75.125 C-57.99839844 74.08730469 -59.05929687 73.04960938 -60.15234375 71.98046875 C-61.56193359 70.50513672 -61.56193359 70.50513672 -63 69 C-63.72316406 68.21238281 -64.44632812 67.42476562 -65.19140625 66.61328125 C-65.78824219 65.89527344 -66.38507813 65.17726563 -67 64.4375 C-67.51949219 63.72980469 -68.03898437 63.02210938 -68.57421875 62.29296875 C-69.04472656 61.53628906 -69.51523437 60.77960937 -70 60 C-70.48082031 59.06800781 -70.96164062 58.13601563 -71.45703125 57.17578125 C-71.90433594 56.21027344 -72.35164063 55.24476563 -72.8125 54.25 C-73.19019531 53.36828125 -73.56789063 52.4865625 -73.95703125 51.578125 C-74.30121094 50.72734375 -74.64539063 49.8765625 -75 49 C-75.39574219 48.12859375 -75.79148437 47.2571875 -76.19921875 46.359375 C-76.46347656 45.58078125 -76.72773438 44.8021875 -77 44 C-76.67 43.01 -76.34 42.02 -76 41 C-75.35933594 42.2065625 -74.71867187 43.413125 -74.05859375 44.65625 C-73.64270996 45.42839844 -73.22682617 46.20054687 -72.79833984 46.99609375 C-72.3492627 47.82238281 -71.90018555 48.64867187 -71.4375 49.5 C-70.98584473 50.32628906 -70.53418945 51.15257812 -70.06884766 52.00390625 C-69.61429199 52.81730469 -69.15973633 53.63070312 -68.69140625 54.46875 C-68.23652832 55.25894531 -67.78165039 56.04914062 -67.31298828 56.86328125 C-66.87970215 57.56839844 -66.44641602 58.27351562 -66 59 C-64.89978516 60.43859375 -64.89978516 60.43859375 -63.77734375 61.90625 C-63.14957031 62.5971875 -62.52179688 63.288125 -61.875 64 C-60.92625 64.99 -59.9775 65.98 -59 67 C-59 67.66 -59 68.32 -59 69 C-57.68 69.66 -56.36 70.32 -55 71 C-53.700625 72.1446875 -53.700625 72.1446875 -52.375 73.3125 C-50.704375 74.6428125 -50.704375 74.6428125 -49 76 C-48.23171875 76.45117188 -47.4634375 76.90234375 -46.671875 77.3671875 C-45.41117187 78.02074219 -45.41117187 78.02074219 -44.125 78.6875 C-43.25617188 79.09742188 -42.38734375 79.50734375 -41.4921875 79.9296875 C-40.66976562 80.28289062 -39.84734375 80.63609375 -39 81 C-37.7625 81.433125 -36.525 81.86625 -35.25 82.3125 C-33.8475 82.539375 -32.445 82.76625 -31 83 C-29.948125 83.09539062 -28.89625 83.19078125 -27.8125 83.2890625 C-26.0490625 83.36253906 -26.0490625 83.36253906 -24.25 83.4375 C-22.44402344 83.4065625 -22.44402344 83.4065625 -20.6015625 83.375 C-19.41304688 83.25125 -18.22453125 83.1275 -17 83 C-15.91460937 82.71125 -14.82921875 82.4225 -13.7109375 82.125 C-12.18339844 81.5371875 -12.18339844 81.5371875 -10.625 80.9375 C-9.65433594 80.47085938 -8.68367188 80.00421875 -7.68359375 79.5234375 C-6.79800781 79.02070312 -5.91242188 78.51796875 -5 78 C-3.87271484 77.30777344 -3.87271484 77.30777344 -2.72265625 76.6015625 C-2.05105469 76.09367188 -1.37945312 75.58578125 -0.6875 75.0625 C-0.07132812 74.47984375 0.54484375 73.8971875 1.1796875 73.296875 C1.78039062 72.53890625 2.38109375 71.7809375 3 71 C3.66257812 69.87078125 4.32515625 68.7415625 5.0078125 67.578125 C5.64460938 66.33546875 6.28140625 65.0928125 6.9375 63.8125 C7.50339844 62.62269531 8.06929688 61.43289063 8.65234375 60.20703125 C9.09707031 59.14871094 9.54179687 58.09039063 10 57 C10.33 55.68 10.66 54.36 11 53 C11.09023438 51.40800781 11.18046875 49.81601562 11.2734375 48.17578125 C11.30800049 46.76848755 11.30800049 46.76848755 11.34326172 45.33276367 C11.35373535 44.33607666 11.36420898 43.33938965 11.375 42.3125 C11.37902832 41.28680908 11.38305664 40.26111816 11.38720703 39.2043457 C11.3656958 37.65299927 11.3656958 37.65299927 11.34375 36.0703125 C11.30507813 35.04196289 11.26640625 34.01361328 11.2265625 32.95410156 C11.11441406 31.49182129 11.11441406 31.49182129 11 30 C10.86851562 29.14889648 10.73703125 28.29779297 10.6015625 27.42089844 C10.43398438 26.64004883 10.26640625 25.85919922 10.09375 25.0546875 C9.49046875 22.89292969 9.49046875 22.89292969 8.875 20.6875 C8.42511719 19.34816406 7.97523438 18.00882813 7.51171875 16.62890625 C6.76341797 14.83259766 6.76341797 14.83259766 6 13 C5.17435547 11.43572266 5.17435547 11.43572266 4.33203125 9.83984375 C3.78933594 8.94394531 3.24664062 8.04804687 2.6875 7.125 C1.800625 5.76375 0.91375 4.4025 0 3 C0 2.01 0 1.02 0 0 Z " transform="translate(341,556)" style="fill: #6CAF33;"/></svg>