<svg id="svg" version="1.1" xmlns="http://www.w3.org/2000/svg" style="display: block;" viewBox="0 0 1024 1024"><path xmlns="http://www.w3.org/2000/svg" d="M0 0 C1.32 0.33 2.64 0.66 4 1 C4.66257812 1.50789062 5.32515625 2.01578125 6.0078125 2.5390625 C6.70648438 3.22742188 7.40515625 3.91578125 8.125 4.625 C8.90875 5.4396875 9.6925 6.254375 10.5 7.09375 C11.325 8.0528125 12.15 9.011875 13 10 C13.845625 11.1240625 14.69125 12.248125 15.5625 13.40625 C16.408125 14.6334375 17.25375 15.860625 18.125 17.125 C18.95515625 18.41277344 19.7853125 19.70054687 20.640625 21.02734375 C21.41921875 22.33832031 22.1978125 23.64929688 23 25 C23.67546875 26.28003906 24.3509375 27.56007813 25.046875 28.87890625 C25.65015625 30.13574219 26.2534375 31.39257812 26.875 32.6875 C27.42414063 33.92886719 27.97328125 35.17023437 28.5390625 36.44921875 C29.02117187 37.62097656 29.50328125 38.79273438 30 40 C30.39960938 41.01707031 30.79921875 42.03414062 31.2109375 43.08203125 C31.55382812 44.04496094 31.89671875 45.00789062 32.25 46 C32.5490625 46.97582031 32.848125 47.95164062 33.15625 48.95703125 C33.4346875 49.96121094 33.713125 50.96539063 34 52 C34.2990625 53.05574219 34.598125 54.11148438 34.90625 55.19921875 C35.1846875 56.35035156 35.463125 57.50148438 35.75 58.6875 C35.98460937 59.93917969 36.21921875 61.19085937 36.4609375 62.48046875 C36.63882813 63.97191406 36.81671875 65.46335937 37 67 C37.05704102 67.94697754 37.11408203 68.89395508 37.17285156 69.86962891 C37.21120117 70.89878418 37.24955078 71.92793945 37.2890625 72.98828125 C37.32181274 74.58397949 37.32181274 74.58397949 37.35522461 76.21191406 C37.36175049 77.29698242 37.36827637 78.38205078 37.375 79.5 C37.36927979 80.5837793 37.36355957 81.66755859 37.35766602 82.78417969 C37.33631592 83.84668945 37.31496582 84.90919922 37.29296875 86.00390625 C37.25478027 87.03273926 37.2165918 88.06157227 37.17724609 89.12158203 C37.11875488 90.07145996 37.06026367 91.02133789 37 92 C36.71576172 94.27197266 36.71576172 94.27197266 36.42578125 96.58984375 C36.18214844 97.85957031 35.93851562 99.12929688 35.6875 100.4375 C35.26404297 102.16613281 35.26404297 102.16613281 34.83203125 103.9296875 C34.55746094 104.94289063 34.28289062 105.95609375 34 107 C33.81824219 107.86882812 33.63648438 108.73765625 33.44921875 109.6328125 C33.25972656 110.43460938 33.07023437 111.23640625 32.875 112.0625 C32.63394531 112.82691406 32.39289063 113.59132813 32.14453125 114.37890625 C31.76683594 115.24386719 31.38914062 116.10882812 31 117 C29.98486328 118.80791016 29.98486328 118.80791016 28.94921875 120.65234375 C27.76779297 122.55693359 27.76779297 122.55693359 26.5625 124.5 C25.80066406 125.6859375 25.03882813 126.871875 24.25390625 128.09375 C23.51011719 129.0528125 22.76632812 130.011875 22 131 C20.02 131.99 20.02 131.99 18 133 C18 131.68 18 130.36 18 129 C18.47050781 127.97648438 18.94101562 126.95296875 19.42578125 125.8984375 C20.04839844 124.73570312 20.67101562 123.57296875 21.3125 122.375 C21.951875 121.13492188 22.59125 119.89484375 23.25 118.6171875 C23.8275 117.42351562 24.405 116.22984375 25 115 C25.5259375 113.54980469 25.5259375 113.54980469 26.0625 112.0703125 C26.31 111.22210937 26.5575 110.37390625 26.8125 109.5 C27.204375 108.015 27.59625 106.53 28 105 C28.34901367 104.06043457 28.69802734 103.12086914 29.05761719 102.15283203 C29.52409668 100.59218018 29.52409668 100.59218018 30 99 C30.08540039 97.89897949 30.17080078 96.79795898 30.25878906 95.66357422 C30.26104492 94.4726416 30.26330078 93.28170898 30.265625 92.0546875 C30.26820313 90.72953125 30.27078125 89.404375 30.2734375 88.0390625 C30.26570313 86.66492188 30.25796875 85.29078125 30.25 83.875 C30.25773437 82.5240625 30.26546875 81.173125 30.2734375 79.78125 C30.26957031 77.78191406 30.26957031 77.78191406 30.265625 75.7421875 C30.24032715 74.43056641 30.2150293 73.11894531 30.18896484 71.76757812 C30.12660645 70.52427734 30.06424805 69.28097656 30 68 C29.80784912 66.3284082 29.80784912 66.3284082 29.61181641 64.62304688 C29.44858887 63.60017578 29.28536133 62.57730469 29.1171875 61.5234375 C28.84455078 60.08991943 28.84455078 60.08991943 28.56640625 58.62744141 C28.37949219 57.76038574 28.19257813 56.89333008 28 56 C27.66742188 54.57171875 27.33484375 53.1434375 26.9921875 51.671875 C26.62351562 50.37765625 26.25484375 49.0834375 25.875 47.75 C25.43285156 46.30367187 24.99070312 44.85734375 24.53515625 43.3671875 C24.02855469 41.92601562 23.52195312 40.48484375 23 39 C22.42121094 37.64132812 21.84242188 36.28265625 21.24609375 34.8828125 C20.60800781 33.56023438 19.96992188 32.23765625 19.3125 30.875 C18.631875 29.575625 17.95125 28.27625 17.25 26.9375 C16.5075 25.638125 15.765 24.33875 15 23 C14.154375 21.63875 13.30875 20.2775 12.4375 18.875 C11.57125 17.555 10.705 16.235 9.8125 14.875 C9.01457031 13.69679688 8.21664063 12.51859375 7.39453125 11.3046875 C6.60433594 10.21414063 5.81414062 9.12359375 5 8 C4.07574219 6.90945313 3.15148437 5.81890625 2.19921875 4.6953125 C1.47347656 3.80585937 0.74773437 2.91640625 0 2 C0 1.34 0 0.68 0 0 Z " transform="translate(358,522)" style="fill: #6DAF33;"/></svg>