<svg id="svg" version="1.1" xmlns="http://www.w3.org/2000/svg" style="display: block;" viewBox="0 0 1024 1024"><path xmlns="http://www.w3.org/2000/svg" d="M0 0 C1.051875 -0.04125 2.10375 -0.0825 3.1875 -0.125 C4.115625 -0.08375 5.04375 -0.0425 6 0 C6 1.32 6 2.64 6 4 C5.00597168 4.45213867 4.01194336 4.90427734 2.98779297 5.37011719 C0.88621826 6.3238623 0.88621826 6.3238623 -1.2578125 7.296875 C-2.4016465 7.81447388 -2.4016465 7.81447388 -3.56858826 8.3425293 C-4.36781204 8.70354736 -5.16703583 9.06456543 -5.99047852 9.43652344 C-6.82797638 9.81417847 -7.66547424 10.1918335 -8.52835083 10.58093262 C-9.38524506 10.96672485 -10.24213928 11.35251709 -11.125 11.75 C-11.98068573 12.13482544 -12.83637146 12.51965088 -13.71798706 12.9161377 C-14.57925201 13.3024939 -15.44051697 13.6888501 -16.32788086 14.08691406 C-17.1952034 14.47453918 -18.06252594 14.86216431 -18.95613098 15.26153564 C-19.82783432 15.64960388 -20.69953766 16.03767212 -21.59765625 16.4375 C-22.47729538 16.82766296 -23.35693451 17.21782593 -24.26322937 17.61981201 C-25.57176628 18.19665741 -25.57176628 18.19665741 -26.90673828 18.78515625 C-27.76309875 19.15979004 -28.61945923 19.53442383 -29.50177002 19.92041016 C-30.32618591 20.2766748 -31.15060181 20.63293945 -32 21 C-33.49644043 21.62777344 -34.99288086 22.25554688 -36.53466797 22.90234375 C-38.61932373 23.75505859 -38.61932373 23.75505859 -40.74609375 24.625 C-42.07302246 25.15899414 -43.39995117 25.69298828 -44.76708984 26.24316406 C-46.0195752 26.74041992 -47.27206055 27.23767578 -48.5625 27.75 C-49.73506348 28.21374023 -50.90762695 28.67748047 -52.11572266 29.15527344 C-53.23382324 29.59387695 -54.35192383 30.03248047 -55.50390625 30.484375 C-56.57374756 30.89856689 -57.64358887 31.31275879 -58.74584961 31.73950195 C-59.81971924 32.15546631 -60.89358887 32.57143066 -62 33 C-63.17248291 33.4643042 -64.34496582 33.9286084 -65.55297852 34.40698242 C-66.70338623 34.85920166 -67.85379395 35.3114209 -69.0390625 35.77734375 C-70.58327881 36.38823853 -70.58327881 36.38823853 -72.15869141 37.01147461 C-73.09632324 37.33768799 -74.03395508 37.66390137 -75 38 C-76.588125 38.268125 -78.17625 38.53625 -79.8125 38.8125 C-81.3903125 38.9053125 -81.3903125 38.9053125 -83 39 C-83.33 37.35 -83.66 35.7 -84 34 C-83.19304688 33.56171875 -82.38609375 33.1234375 -81.5546875 32.671875 C-80.34039063 32.03765625 -79.12609375 31.4034375 -77.875 30.75 C-76.42351563 30.02425781 -74.97203125 29.29851563 -73.4765625 28.55078125 C-72.62739258 28.14553223 -71.77822266 27.7402832 -70.90332031 27.32275391 C-69.94522461 26.88624512 -68.98712891 26.44973633 -68 26 C-66.88463867 25.52353027 -65.76927734 25.04706055 -64.62011719 24.55615234 C-63.41258789 24.05680176 -62.20505859 23.55745117 -60.9609375 23.04296875 C-59.07797974 22.27883667 -59.07797974 22.27883667 -57.15698242 21.49926758 C-55.86767822 20.98388428 -54.57837402 20.46850098 -53.25 19.9375 C-51.94587158 19.42018311 -50.64174316 18.90286621 -49.2980957 18.36987305 C-48.00734131 17.86367432 -46.71658691 17.35747559 -45.38671875 16.8359375 C-44.12649902 16.34834961 -42.8662793 15.86076172 -41.56787109 15.35839844 C-40.39047363 14.91012695 -39.21307617 14.46185547 -38 14 C-36.98631348 13.62391602 -35.97262695 13.24783203 -34.92822266 12.86035156 C-34.00960449 12.52745117 -33.09098633 12.19455078 -32.14453125 11.8515625 C-31.28174561 11.54508789 -30.41895996 11.23861328 -29.5300293 10.92285156 C-28.71574463 10.63893555 -27.90145996 10.35501953 -27.0625 10.0625 C-25.51820313 9.53398437 -23.97390625 9.00546875 -22.3828125 8.4609375 C-20.21332031 7.73777344 -20.21332031 7.73777344 -18 7 C-16.53304687 6.51789063 -15.06609375 6.03578125 -13.5546875 5.5390625 C-12.19601562 5.09304688 -10.83734375 4.64703125 -9.4375 4.1875 C-7.67212891 3.62095703 -7.67212891 3.62095703 -5.87109375 3.04296875 C-4.92363281 2.69878906 -3.97617187 2.35460937 -3 2 C-2.01 1.34 -1.02 0.68 0 0 Z " transform="translate(672,495)" style="fill: #71B12D;"/></svg>