<svg id="svg" version="1.1" xmlns="http://www.w3.org/2000/svg" style="display: block;" viewBox="0 0 1024 1024"><path xmlns="http://www.w3.org/2000/svg" d="M0 0 C1.588125 -0.103125 3.17625 -0.20625 4.8125 -0.3125 C6.10607422 -0.27962891 6.10607422 -0.27962891 7.42578125 -0.24609375 C8.70001953 -0.12427734 8.70001953 -0.12427734 10 0 C11.485 0.37125 12.97 0.7425 14.5 1.125 C16.7275 2.053125 16.7275 2.053125 19 3 C19.89589844 3.46019531 20.79179687 3.92039062 21.71484375 4.39453125 C22.61332031 4.90371094 23.51179688 5.41289063 24.4375 5.9375 C25.26121094 6.42089844 26.08492188 6.90429688 26.93359375 7.40234375 C27.95646484 8.19318359 27.95646484 8.19318359 29 9 C29.66 10.32 30.32 11.64 31 13 C29.9171875 12.82984375 29.9171875 12.82984375 28.8125 12.65625 C27.884375 12.4396875 26.95625 12.223125 26 12 C25.175 11.6184375 24.35 11.236875 23.5 10.84375 C22.675 10.4003125 21.85 9.956875 21 9.5 C20.175 9.0565625 19.35 8.613125 18.5 8.15625 C17.675 7.7746875 16.85 7.393125 16 7 C15.18144531 6.78988281 14.36289062 6.57976563 13.51953125 6.36328125 C12.68808594 6.24339844 11.85664063 6.12351562 11 6 C10.13761719 5.92136719 9.27523437 5.84273437 8.38671875 5.76171875 C7.05060547 5.72498047 7.05060547 5.72498047 5.6875 5.6875 C4.7284375 5.70167969 3.769375 5.71585938 2.78125 5.73046875 C1.40453125 5.86388672 1.40453125 5.86388672 0 6 C-2.1346875 6.7425 -2.1346875 6.7425 -4.3125 7.5 C-5.529375 8.325 -6.74625 9.15 -8 10 C-9.6396875 11.8253125 -9.6396875 11.8253125 -11.3125 13.6875 C-11.78558594 14.38488281 -12.25867188 15.08226562 -12.74609375 15.80078125 C-13.15988281 16.52652344 -13.57367188 17.25226562 -14 18 C-14.61875 19.44375 -15.2375 20.8875 -15.875 22.375 C-16.24625 23.90125 -16.6175 25.4275 -17 27 C-17.144375 28.505625 -17.28875 30.01125 -17.4375 31.5625 C-17.40785156 32.38621094 -17.37820313 33.20992187 -17.34765625 34.05859375 C-17.23292969 35.02925781 -17.11820312 35.99992188 -17 37 C-16.77183594 38.29035156 -16.54367187 39.58070313 -16.30859375 40.91015625 C-15.84646484 42.99650391 -15.84646484 42.99650391 -15.375 45.125 C-15.01664062 46.49140625 -14.65828125 47.8578125 -14.2890625 49.265625 C-13.86367188 50.49796875 -13.43828125 51.7303125 -13 53 C-12.47148437 53.90234375 -11.94296875 54.8046875 -11.3984375 55.734375 C-10.85445313 56.44078125 -10.31046875 57.1471875 -9.75 57.875 C-8.8425 58.90625 -7.935 59.9375 -7 61 C-7 61.66 -7 62.32 -7 63 C-5.68 63.66 -4.36 64.32 -3 65 C-1.88625 65.556875 -1.88625 65.556875 -0.75 66.125 C0.1575 66.41375 1.065 66.7025 2 67 C3.299375 67.103125 4.59875 67.20625 5.9375 67.3125 C7.278125 67.209375 8.61875 67.10625 10 67 C11.0725 66.649375 12.145 66.29875 13.25 65.9375 C14.1575 65.298125 15.065 64.65875 16 64 C16.763125 62.906875 17.52625 61.81375 18.3125 60.6875 C18.869375 59.470625 19.42625 58.25375 20 57 C20.2475 55.865625 20.495 54.73125 20.75 53.5625 C20.8325 52.716875 20.915 51.87125 21 51 C21.99 51.495 21.99 51.495 23 52 C23.0825 53.155 23.165 54.31 23.25 55.5 C23.1675 56.985 23.085 58.47 23 60 C22.484375 61.4025 21.96875 62.805 21.4375 64.25 C20.2309375 66.10625 20.2309375 66.10625 19 68 C17.515 69.2375 17.515 69.2375 16 70.5 C14.68 70.995 13.36 71.49 12 72 C11.07445312 72.14695312 10.14890625 72.29390625 9.1953125 72.4453125 C8.18210937 72.50460937 7.16890625 72.56390625 6.125 72.625 C5.09246094 72.58632813 4.05992187 72.54765625 2.99609375 72.5078125 C2.00738281 72.34023438 1.01867187 72.17265625 0 72 C-0.83402344 71.64679688 -1.66804688 71.29359375 -2.52734375 70.9296875 C-3.28144531 70.45789063 -4.03554688 69.98609375 -4.8125 69.5 C-5.5240625 68.95085937 -6.235625 68.40171875 -6.96875 67.8359375 C-7.6390625 67.23007812 -8.309375 66.62421875 -9 66 C-9.6496875 65.37351562 -10.299375 64.74703125 -10.96875 64.1015625 C-11.5771875 63.44929687 -12.185625 62.79703125 -12.8125 62.125 C-13.6478125 61.11373047 -13.6478125 61.11373047 -14.5 60.08203125 C-14.995 59.39496094 -15.49 58.70789063 -16 58 C-16.763125 56.618125 -17.52625 55.23625 -18.3125 53.8125 C-18.869375 52.554375 -19.42625 51.29625 -20 50 C-20.391875 49.13375 -20.78375 48.2675 -21.1875 47.375 C-21.455625 46.59125 -21.72375 45.8075 -22 45 C-22.1753125 44.08863281 -22.350625 43.17726563 -22.53125 42.23828125 C-22.6859375 41.16964844 -22.840625 40.10101562 -23 39 C-23.07863281 37.99582031 -23.15726562 36.99164062 -23.23828125 35.95703125 C-23.26277344 34.91933594 -23.28726562 33.88164063 -23.3125 32.8125 C-23.30089844 31.68070313 -23.28929687 30.54890625 -23.27734375 29.3828125 C-23.18582031 28.26648438 -23.09429687 27.15015625 -23 26 C-22.77441406 25.00742187 -22.54882812 24.01484375 -22.31640625 22.9921875 C-22.00574219 22.06664062 -21.69507813 21.14109375 -21.375 20.1875 C-21.00761719 19.30191406 -20.64023437 18.41632812 -20.26171875 17.50390625 C-19.63716797 16.26447266 -19.63716797 16.26447266 -19 15 C-18.55269531 14.24589844 -18.10539062 13.49179687 -17.64453125 12.71484375 C-17.16371094 12.02519531 -16.68289063 11.33554687 -16.1875 10.625 C-14.6096875 8.830625 -14.6096875 8.830625 -13 7 C-11.845 6.05125 -10.69 5.1025 -9.5 4.125 C-8.345 3.42375 -7.19 2.7225 -6 2 C-5.071875 1.566875 -4.14375 1.13375 -3.1875 0.6875 C-2.135625 0.460625 -1.08375 0.23375 0 0 Z " transform="translate(306,538)" style="fill: #71B237;"/></svg>