<svg id="svg" version="1.1" xmlns="http://www.w3.org/2000/svg" style="display: block;" viewBox="0 0 1024 1024"><path xmlns="http://www.w3.org/2000/svg" d="M0 0 C1.65 0 3.3 0 5 0 C5 1.32 5 2.64 5 4 C3.70449219 4.67417969 2.40898438 5.34835937 1.07421875 6.04296875 C0.15688965 6.50106934 -0.76043945 6.95916992 -1.70556641 7.43115234 C-2.79272949 7.94887207 -3.87989258 8.4665918 -5 9 C-6.89564697 9.836521 -6.89564697 9.836521 -8.82958984 10.68994141 C-10.22000488 11.28339355 -11.61041992 11.8768457 -13.04296875 12.48828125 C-14.51878418 13.10888428 -15.99459961 13.7294873 -17.51513672 14.36889648 C-18.27888611 14.68704315 -19.0426355 15.00518982 -19.82952881 15.33297729 C-20.6076593 15.65621979 -21.38578979 15.97946228 -22.1875 16.3125 C-22.97981018 16.64226837 -23.77212036 16.97203674 -24.58843994 17.3117981 C-25.38699402 17.64339935 -26.1855481 17.97500061 -27.00830078 18.31665039 C-27.80602905 18.64631302 -28.60375732 18.97597565 -29.42565918 19.31562805 C-30.21976196 19.64201767 -31.01386475 19.96840729 -31.83203125 20.3046875 C-32.62097778 20.62676682 -33.40992432 20.94884613 -34.22277832 21.28068542 C-34.99569214 21.59379166 -35.76860596 21.90689789 -36.56494141 22.22949219 C-38.02851074 22.81375977 -39.49208008 23.39802734 -41 24 C-42.26118652 24.48629883 -43.52237305 24.97259766 -44.82177734 25.47363281 C-45.95695801 25.89741211 -47.09213867 26.32119141 -48.26171875 26.7578125 C-49.31141846 27.13639404 -50.36111816 27.51497559 -51.44262695 27.9050293 C-52.41031006 28.24574463 -53.37799316 28.58645996 -54.375 28.9375 C-55.28145264 29.26081299 -56.18790527 29.58412598 -57.12182617 29.91723633 C-58.37249878 30.3429895 -58.37249878 30.3429895 -59.6484375 30.77734375 C-61.80246094 31.38255859 -61.80246094 31.38255859 -64 32 C-65.18851563 32.06316406 -66.37703125 32.12632812 -67.6015625 32.19140625 C-68.39304687 32.12824219 -69.18453125 32.06507813 -70 32 C-70.33 30.68 -70.66 29.36 -71 28 C-69.63617187 27.12214844 -68.27234375 26.24429687 -66.8671875 25.33984375 C-65.9503418 24.79054199 -65.03349609 24.24124023 -64.08886719 23.67529297 C-63.06954102 23.12244629 -62.05021484 22.56959961 -61 22 C-59.40526855 21.30028076 -59.40526855 21.30028076 -57.77832031 20.58642578 C-56.65780273 20.14669434 -55.53728516 19.70696289 -54.3828125 19.25390625 C-53.208396 18.81248291 -52.03397949 18.37105957 -50.82397461 17.91625977 C-49.60331299 17.46951904 -48.38265137 17.02277832 -47.125 16.5625 C-45.85084229 16.08804443 -44.57668457 15.61358887 -43.26391602 15.12475586 C-41.34470337 14.41331421 -41.34470337 14.41331421 -39.38671875 13.6875 C-38.13036621 13.22859375 -36.87401367 12.7696875 -35.57958984 12.296875 C-34.3983252 11.86890625 -33.21706055 11.4409375 -32 11 C-30.97729004 10.63132812 -29.95458008 10.26265625 -28.90087891 9.8828125 C-27.50554932 9.38394531 -27.50554932 9.38394531 -26.08203125 8.875 C-25.20861084 8.565625 -24.33519043 8.25625 -23.43530273 7.9375 C-22.61102783 7.64875 -21.78675293 7.36 -20.9375 7.0625 C-19.37773438 6.52625 -17.81796875 5.99 -16.2109375 5.4375 C-14.82132813 4.963125 -13.43171875 4.48875 -12 4 C-10.77539062 3.566875 -9.55078125 3.13375 -8.2890625 2.6875 C-7.22429688 2.31625 -6.15953125 1.945 -5.0625 1.5625 C-4.18722656 1.25441406 -3.31195312 0.94632812 -2.41015625 0.62890625 C-1.21712891 0.31759766 -1.21712891 0.31759766 0 0 Z " transform="translate(770,408)" style="fill: #76B52E;"/></svg>