<svg id="svg" version="1.1" xmlns="http://www.w3.org/2000/svg" style="display: block;" viewBox="0 0 1024 1024"><path xmlns="http://www.w3.org/2000/svg" d="M0 0 C1.83884766 -0.18949219 1.83884766 -0.18949219 3.71484375 -0.3828125 C5.06707031 -0.44210937 6.41929687 -0.50140625 7.8125 -0.5625 C9.18664062 -0.53414063 10.56078125 -0.50578125 11.9765625 -0.4765625 C13.30429687 -0.31929688 14.63203125 -0.16203125 16 0 C17.16273438 0.36351562 18.32546875 0.72703125 19.5234375 1.1015625 C20.56757813 1.58367187 21.61171875 2.06578125 22.6875 2.5625 C23.64011719 3.11164063 24.59273438 3.66078125 25.57421875 4.2265625 C26.37472656 4.81179688 27.17523437 5.39703125 28 6 C28.99 7.134375 29.98 8.26875 31 9.4375 C31.66 10.613125 32.32 11.78875 33 13 C33.680625 14.11375 34.36125 15.2275 35.0625 16.375 C35.701875 17.57125 36.34125 18.7675 37 20 C37.64324219 21.37929688 38.28648437 22.75859375 38.94921875 24.1796875 C39.29718506 24.97391113 39.64515137 25.76813477 40.00366211 26.58642578 C40.33245361 27.38290527 40.66124512 28.17938477 41 29 C41.48984375 30.39734375 41.9796875 31.7946875 42.484375 33.234375 C43.11085938 35.46960938 43.11085938 35.46960938 43.75 37.75 C43.96462891 38.58055908 44.17925781 39.41111816 44.40039062 40.2668457 C44.60341797 41.15976318 44.80644531 42.05268066 45.015625 42.97265625 C45.19544922 43.92156738 45.37527344 44.87047852 45.56054688 45.84814453 C45.70556641 46.88825684 45.85058594 47.92836914 46 49 C46.08830078 50.19093262 46.17660156 51.38186523 46.26757812 52.60888672 C46.31849609 53.87104004 46.36941406 55.13319336 46.421875 56.43359375 C46.44411133 57.71588867 46.46634766 58.99818359 46.48925781 60.31933594 C46.49280273 61.59583008 46.49634766 62.87232422 46.5 64.1875 C46.50612305 65.41629883 46.51224609 66.64509766 46.51855469 67.91113281 C46.50211914 69.08901367 46.48568359 70.26689453 46.46875 71.48046875 C46.42234375 72.60243652 46.3759375 73.7244043 46.328125 74.88037109 C46.16570312 76.4245874 46.16570312 76.4245874 46 78 C45.76796875 78.8863916 45.5359375 79.7727832 45.296875 80.68603516 C45.02359375 81.46640137 44.7503125 82.24676758 44.46875 83.05078125 C43.74171875 85.00564453 43.74171875 85.00564453 43 87 C43 88.65 43 90.3 43 92 C43.33 92.99 43.66 93.98 44 95 C45.32 94.34 46.64 93.68 48 93 C48.598125 91.989375 49.19625 90.97875 49.8125 89.9375 C50.8953125 88.4834375 50.8953125 88.4834375 52 87 C53.03125 86.649375 54.0625 86.29875 55.125 85.9375 C56.40375 85.958125 57.6825 85.97875 59 86 C60.16789063 86.29197266 60.16789063 86.29197266 61.359375 86.58984375 C62.60460937 86.97849609 62.60460937 86.97849609 63.875 87.375 C64.71546875 87.65730469 65.5559375 87.93960938 66.421875 88.23046875 C67.27265625 88.48441406 68.1234375 88.73835938 69 89 C69.87140625 89.14050781 70.7428125 89.28101563 71.640625 89.42578125 C72.87039063 89.55533203 72.87039063 89.55533203 74.125 89.6875 C75.40375 89.790625 76.6825 89.89375 78 90 C77.34 90.33 76.68 90.66 76 91 C76 91.66 76 92.32 76 93 C77.6396875 93.185625 77.6396875 93.185625 79.3125 93.375 C80.859375 93.58125 82.40625 93.7875 84 94 C84.78052734 94.16306641 85.56105469 94.32613281 86.36523438 94.49414062 C87.20376953 94.67138672 88.04230469 94.84863281 88.90625 95.03125 C89.86893799 95.20833496 90.83162598 95.38541992 91.82348633 95.56787109 C92.87173584 95.71047363 93.91998535 95.85307617 95 96 C96.12881592 96.05365723 97.25763184 96.10731445 98.4206543 96.16259766 C99.59539307 96.17339355 100.77013184 96.18418945 101.98046875 96.1953125 C103.16318359 96.18886719 104.34589844 96.18242187 105.56445312 96.17578125 C106.76005859 96.15902344 107.95566406 96.14226562 109.1875 96.125 C111.0447168 96.11146484 111.0447168 96.11146484 112.93945312 96.09765625 C114.10798828 96.08863281 115.27652344 96.07960938 116.48046875 96.0703125 C117.54160889 96.05758301 118.60274902 96.04485352 119.69604492 96.03173828 C120.4563501 96.02126465 121.21665527 96.01079102 122 96 C121.67 96.66 121.34 97.32 121 98 C120.0615625 98.37898438 119.123125 98.75796875 118.15625 99.1484375 C116.9496875 99.55320312 115.743125 99.95796875 114.5 100.375 C113.23929688 100.80941406 111.97859375 101.24382812 110.6796875 101.69140625 C108.85824219 102.33916016 108.85824219 102.33916016 107 103 C106.03320312 103.40089844 105.06640625 103.80179687 104.0703125 104.21484375 C102.85988281 104.75818359 102.85988281 104.75818359 101.625 105.3125 C100.42875 105.869375 99.2325 106.42625 98 107 C98 107.66 98 108.32 98 109 C99.07967041 108.85848511 99.07967041 108.85848511 100.18115234 108.71411133 C101.680896 108.49404419 101.680896 108.49404419 103.2109375 108.26953125 C104.85980957 107.99423584 104.85980957 107.99423584 106.54199219 107.71337891 C107.68313477 107.47796387 108.82427734 107.24254883 110 107 C111.03543945 106.69368652 112.07087891 106.38737305 113.13769531 106.07177734 C114.15702148 105.72195801 115.17634766 105.37213867 116.2265625 105.01171875 C117.27972656 104.63466797 118.33289063 104.25761719 119.41796875 103.86914062 C120.47628906 103.47919922 121.53460937 103.08925781 122.625 102.6875 C123.66011719 102.30916016 124.69523437 101.93082031 125.76171875 101.54101562 C126.82261719 101.16009766 127.88351562 100.77917969 128.9765625 100.38671875 C130.0910376 99.99355469 131.2055127 99.60039062 132.35375977 99.1953125 C134.15864868 98.60363281 134.15864868 98.60363281 136 98 C137.352146 97.62101562 138.70429199 97.24203125 140.09741211 96.8515625 C141.55155518 96.46097656 143.00569824 96.07039063 144.50390625 95.66796875 C146.03112305 95.25232666 147.55833984 94.83668457 149.13183594 94.40844727 C149.92481079 94.18488556 150.71778564 93.96132385 151.53479004 93.73098755 C152.34830933 93.48976166 153.16182861 93.24853577 154 93 C154.83688354 92.73033417 155.67376709 92.46066833 156.53601074 92.18283081 C157.39069946 91.89554108 158.24538818 91.60825134 159.12597656 91.31225586 C159.99446228 91.01387314 160.862948 90.71549042 161.75775146 90.4080658 C163.07842621 89.94697166 163.07842621 89.94697166 164.42578125 89.4765625 C165.31589905 89.16429214 166.20601685 88.85202179 167.12310791 88.5302887 C168.02027527 88.21349655 168.91744263 87.89670441 169.84179688 87.5703125 C170.74406006 87.2496582 171.64632324 86.92900391 172.57592773 86.59863281 C173.47899658 86.27733398 174.38206543 85.95603516 175.3125 85.625 C176.21025146 85.30724609 177.10800293 84.98949219 178.03295898 84.66210938 C178.92893799 84.34564453 179.82491699 84.02917969 180.74804688 83.703125 C181.64457977 83.38688171 182.54111267 83.07063843 183.46481323 82.74481201 C184.35943268 82.42941467 185.25405212 82.11401733 186.17578125 81.7890625 C187.5093718 81.31765839 187.5093718 81.31765839 188.86990356 80.83673096 C189.75926605 80.52354919 190.64862854 80.21036743 191.56494141 79.88769531 C192.45570374 79.57610474 193.34646606 79.26451416 194.26422119 78.94348145 C195.1670282 78.63213257 196.06983521 78.32078369 197 78 C197.93503357 77.686073 198.87006714 77.372146 199.83343506 77.04870605 C200.77318176 76.73711548 201.71292847 76.4255249 202.68115234 76.10449219 C203.61162888 75.79667816 204.54210541 75.48886414 205.5007782 75.17172241 C206.40157608 74.87528839 207.30237396 74.57885437 208.23046875 74.2734375 C209.48142082 73.86709579 209.48142082 73.86709579 210.75764465 73.45254517 C211.56102768 73.1889621 212.36441071 72.92537903 213.19213867 72.65380859 C213.97462982 72.392995 214.75712097 72.1321814 215.56332397 71.86346436 C216.36742706 71.57852112 217.17153015 71.29357788 218 71 C219.36676376 70.45874481 219.36676376 70.45874481 220.76113892 69.90655518 C221.66020966 69.53987732 222.5592804 69.17319946 223.4855957 68.79541016 C224.97534912 68.2029248 226.46510254 67.61043945 228 67 C228.66 67 229.32 67 230 67 C229.67 66.01 229.34 65.02 229 64 C228.10023438 64.09152344 227.20046875 64.18304688 226.2734375 64.27734375 C224.86320312 64.51582031 223.45296875 64.75429688 222 65 C221.10700195 65.23219238 220.21400391 65.46438477 219.29394531 65.70361328 C218.30233398 65.98833496 217.31072266 66.27305664 216.2890625 66.56640625 C215.22179932 66.88303223 214.15453613 67.1996582 213.05493164 67.52587891 C211.9230542 67.86796387 210.79117676 68.21004883 209.625 68.5625 C208.4383374 68.91747559 207.2516748 69.27245117 206.02905273 69.63818359 C204.81419189 70.00379395 203.59933105 70.3694043 202.34765625 70.74609375 C201.12191895 71.11976074 199.89618164 71.49342773 198.63330078 71.87841797 C197.43431152 72.24854004 196.23532227 72.61866211 195 73 C193.8847998 73.35078613 192.76959961 73.70157227 191.62060547 74.06298828 C190.5482666 74.40442871 189.47592773 74.74586914 188.37109375 75.09765625 C187.32002441 75.43458496 186.26895508 75.77151367 185.18603516 76.11865234 C184.15526855 76.45074707 183.12450195 76.7828418 182.0625 77.125 C181.0420459 77.4545166 180.0215918 77.7840332 178.97021484 78.12353516 C177.96555176 78.44757324 176.96088867 78.77161133 175.92578125 79.10546875 C174.94174316 79.42177246 173.95770508 79.73807617 172.94384766 80.06396484 C171.97237793 80.37285645 171.0009082 80.68174805 170 81 C169.02724121 81.30244629 168.05448242 81.60489258 167.05224609 81.91650391 C166.10043457 82.20831543 165.14862305 82.50012695 164.16796875 82.80078125 C162.79402954 83.217229 162.79402954 83.217229 161.39233398 83.64208984 C160.52036377 83.9045752 159.64839355 84.16706055 158.75 84.4375 C157.17734375 84.91058594 155.6046875 85.38367188 153.984375 85.87109375 C152.66953125 86.24363281 151.3546875 86.61617188 150 87 C149.03578125 87.21785156 148.0715625 87.43570313 147.078125 87.66015625 C146.04945313 87.82837891 146.04945313 87.82837891 145 88 C144.34 88 143.68 88 143 88 C142.67 88.66 142.34 89.32 142 90 C142.33 88.68 142.66 87.36 143 86 C143.886875 85.154375 144.77375 84.30875 145.6875 83.4375 C147.3271875 82.2309375 147.3271875 82.2309375 149 81 C149.92167969 80.57976562 150.84335937 80.15953125 151.79296875 79.7265625 C152.85128906 79.15679687 153.90960937 78.58703125 155 78 C156.62808594 76.59041016 156.62808594 76.59041016 158.2890625 75.15234375 C159.38992188 74.09144531 160.49078125 73.03054688 161.625 71.9375 C162.73101563 70.87402344 163.83703125 69.81054688 164.9765625 68.71484375 C166.47316406 67.37099609 166.47316406 67.37099609 168 66 C169.32 65.34 170.64 64.68 172 64 C172.86625 63.05125 173.7325 62.1025 174.625 61.125 C175.40875 60.09375 176.1925 59.0625 177 58 C177.66 56.68 178.32 55.36 179 54 C179.45117188 53.19820313 179.90234375 52.39640625 180.3671875 51.5703125 C180.90601563 50.72210938 181.44484375 49.87390625 182 49 C182.96292969 47.72769531 182.96292969 47.72769531 183.9453125 46.4296875 C184.66460938 45.58664062 185.38390625 44.74359375 186.125 43.875 C186.82882812 43.02679688 187.53265625 42.17859375 188.2578125 41.3046875 C189.61519531 40.16386719 189.61519531 40.16386719 191 39 C192.98580078 38.12214844 192.98580078 38.12214844 195.01171875 37.2265625 C195.79353516 36.99727051 196.57535156 36.76797852 197.38085938 36.53173828 C198.24517578 36.35626465 199.10949219 36.18079102 200 36 C200.95712891 35.89800293 201.91425781 35.79600586 202.90039062 35.69091797 C203.92712891 35.63822754 204.95386719 35.58553711 206.01171875 35.53125 C207.08873047 35.51473389 208.16574219 35.49821777 209.27539062 35.48120117 C210.40138672 35.48740479 211.52738281 35.4936084 212.6875 35.5 C214.45577148 35.50640503 214.45577148 35.50640503 216.25976562 35.51293945 C217.45666016 35.53573975 218.65355469 35.55854004 219.88671875 35.58203125 C221.07958496 35.63311035 222.27245117 35.68418945 223.50146484 35.73681641 C224.65598145 35.82366699 225.81049805 35.91051758 227 36 C228.06299316 36.13970215 229.12598633 36.2794043 230.22119141 36.42333984 C231.73011963 36.6836499 231.73011963 36.6836499 233.26953125 36.94921875 C234.71585938 37.24203735 234.71585938 37.24203735 236.19140625 37.54077148 C237.11824219 37.75419189 238.04507813 37.9676123 239 38.1875 C239.9075 38.4131665 240.815 38.63883301 241.75 38.87133789 C242.61238281 39.10457764 243.47476563 39.33781738 244.36328125 39.578125 C245.89339844 40.04734375 247.42351563 40.5165625 249 41 C250.12792969 41.40734375 251.25585938 41.8146875 252.41796875 42.234375 C253.33191406 42.63140625 254.24585938 43.0284375 255.1875 43.4375 C255.99574219 43.85128906 256.80398438 44.26507813 257.63671875 44.69140625 C258.80654297 45.33916016 258.80654297 45.33916016 260 46 C260.89332031 46.46277344 261.78664063 46.92554688 262.70703125 47.40234375 C263.62871094 47.88832031 264.55039062 48.37429688 265.5 48.875 C266.41007813 49.38417969 267.32015625 49.89335937 268.2578125 50.41796875 C269.16273438 50.94003906 270.06765625 51.46210938 271 52 C271.88429688 52.51175781 272.76859375 53.02351563 273.6796875 53.55078125 C274.56914063 54.09089844 275.45859375 54.63101563 276.375 55.1875 C277.27992188 55.7753125 278.18484375 56.363125 279.1171875 56.96875 C280.06851563 57.6390625 281.01984375 58.309375 282 59 C283.05445313 59.8146875 284.10890625 60.629375 285.1953125 61.46875 C286.83113281 62.81453125 286.83113281 62.81453125 288.5 64.1875 C289.58925781 65.13496094 290.67851563 66.08242188 291.80078125 67.05859375 C292.85652344 68.02925781 293.91226563 68.99992187 295 70 C295.96292969 70.93972656 296.92585937 71.87945312 297.91796875 72.84765625 C298.83191406 73.80542969 299.74585938 74.76320313 300.6875 75.75 C301.574375 76.74902344 302.46125 77.74804688 303.375 78.77734375 C304.24125 79.84082031 305.1075 80.90429688 306 82 C306.86625 83.17691406 307.7325 84.35382813 308.625 85.56640625 C309.470625 86.80261719 310.31625 88.03882813 311.1875 89.3125 C312.40566406 91.20548828 312.40566406 91.20548828 313.6484375 93.13671875 C314.42445313 94.41160156 315.20046875 95.68648438 316 97 C316.73476563 98.26457031 317.46953125 99.52914062 318.2265625 100.83203125 C318.91492188 102.08371094 319.60328125 103.33539063 320.3125 104.625 C320.95316406 105.86378906 321.59382812 107.10257812 322.25390625 108.37890625 C322.83011719 109.57386719 323.40632812 110.76882813 324 112 C324.48339844 113.10214844 324.96679688 114.20429688 325.46484375 115.33984375 C325.88894531 116.40332031 326.31304688 117.46679688 326.75 118.5625 C327.13285156 119.61566406 327.51570312 120.66882813 327.91015625 121.75390625 C328.26980469 122.82511719 328.62945313 123.89632812 329 125 C329.36996094 126.14339844 329.73992188 127.28679687 330.12109375 128.46484375 C330.64896484 130.21474609 330.64896484 130.21474609 331.1875 132 C331.49042969 133.03125 331.79335938 134.0625 332.10546875 135.125 C332.40066406 136.40375 332.69585938 137.6825 333 139 C333.27034058 140.39810913 333.27034058 140.39810913 333.54614258 141.82446289 C333.81720825 143.4137561 333.81720825 143.4137561 334.09375 145.03515625 C334.25963623 146.16195801 334.42552246 147.28875977 334.59643555 148.44970703 C334.72961182 149.62130371 334.86278809 150.79290039 335 152 C335.06807861 153.16772949 335.13615723 154.33545898 335.20629883 155.53857422 C335.23747803 156.72080566 335.26865723 157.90303711 335.30078125 159.12109375 C335.30787109 160.32443359 335.31496094 161.52777344 335.32226562 162.76757812 C335.31904297 163.97865234 335.31582031 165.18972656 335.3125 166.4375 C335.32861328 167.64470703 335.34472656 168.85191406 335.36132812 170.09570312 C335.36197266 171.30033203 335.36261719 172.50496094 335.36328125 173.74609375 C335.33226318 174.94202148 335.30124512 176.13794922 335.26928711 177.37011719 C335.18042236 178.56797852 335.09155762 179.76583984 335 181 C334.7052478 182.83933105 334.7052478 182.83933105 334.40454102 184.71582031 C334.15502686 185.9169043 333.9055127 187.11798828 333.6484375 188.35546875 C333.37588135 189.50571533 333.1033252 190.65596191 332.82250977 191.84106445 C332.41536743 193.40473755 332.41536743 193.40473755 332 195 C331.56300781 196.56492187 331.12601563 198.12984375 330.67578125 199.7421875 C330.22589844 201.10601562 329.77601563 202.46984375 329.3125 203.875 C328.52166016 206.15664063 328.52166016 206.15664063 327.71484375 208.484375 C327.14894531 209.97453125 326.58304688 211.4646875 326 213 C325.42378906 214.36640625 324.84757813 215.7328125 324.25390625 217.140625 C323.63386719 218.45546875 323.01382813 219.7703125 322.375 221.125 C321.69824219 222.42050781 321.02148438 223.71601562 320.32421875 225.05078125 C319.55722656 226.35402344 318.79023437 227.65726563 318 229 C317.55350098 229.68368652 317.10700195 230.36737305 316.64697266 231.07177734 C316.17179199 231.76352051 315.69661133 232.45526367 315.20703125 233.16796875 C314.71557617 233.85536133 314.22412109 234.54275391 313.71777344 235.25097656 C313.2127832 235.9312793 312.70779297 236.61158203 312.1875 237.3125 C311.67348633 237.98120117 311.15947266 238.64990234 310.62988281 239.33886719 C310.11393555 239.98887695 309.59798828 240.63888672 309.06640625 241.30859375 C308.05449219 242.52675781 307.04257812 243.74492188 306 245 C305.10152344 246.02222656 304.20304688 247.04445313 303.27734375 248.09765625 C302.40207031 249.01417969 301.52679687 249.93070313 300.625 250.875 C299.7175 251.73738281 298.81 252.59976563 297.875 253.48828125 C296.451875 254.73158203 296.451875 254.73158203 295 256 C293.989375 256.83917969 292.97875 257.67835938 291.9375 258.54296875 C290.844375 259.37441406 289.75125 260.20585938 288.625 261.0625 C287.43390625 261.87976563 286.2428125 262.69703125 285.015625 263.5390625 C283.69046875 264.35117187 282.3653125 265.16328125 281 266 C280.26587891 266.40573242 279.53175781 266.81146484 278.77539062 267.22949219 C277.99873047 267.63586914 277.22207031 268.04224609 276.421875 268.4609375 C275.60686523 268.86876465 274.79185547 269.2765918 273.95214844 269.69677734 C273.10168945 270.10621582 272.25123047 270.5156543 271.375 270.9375 C270.49618164 271.34822754 269.61736328 271.75895508 268.71191406 272.18212891 C267.79635742 272.59640137 266.88080078 273.01067383 265.9375 273.4375 C264.98230469 273.85644531 264.02710938 274.27539062 263.04296875 274.70703125 C262.03878906 275.13371094 261.03460937 275.56039063 260 276 C258.92878906 276.43957031 257.85757813 276.87914062 256.75390625 277.33203125 C255.63886719 277.77933594 254.52382813 278.22664063 253.375 278.6875 C252.23248779 279.13907471 251.08997559 279.59064941 249.9128418 280.0559082 C248.745354 280.5118335 247.57786621 280.96775879 246.375 281.4375 C245.18495361 281.89793701 243.99490723 282.35837402 242.76879883 282.83276367 C240.97478638 283.52462769 240.97478638 283.52462769 239.14453125 284.23046875 C237.95037598 284.69114746 236.7562207 285.15182617 235.52587891 285.62646484 C234.36233887 286.07973145 233.19879883 286.53299805 232 287 C230.91509277 287.43393066 229.83018555 287.86786133 228.71240234 288.31494141 C227.65617676 288.74339355 226.59995117 289.1718457 225.51171875 289.61328125 C224.45202881 290.04568115 223.39233887 290.47808105 222.30053711 290.92358398 C221.23198486 291.36130127 220.16343262 291.79901855 219.0625 292.25 C217.97525635 292.69480713 216.8880127 293.13961426 215.76782227 293.59790039 C214.64303467 294.05801514 213.51824707 294.51812988 212.359375 294.9921875 C211.18826172 295.47139648 210.01714844 295.95060547 208.81054688 296.44433594 C207.55306641 296.95770508 206.29558594 297.47107422 205 298 C203.59041016 298.57266602 202.18082031 299.14533203 200.72851562 299.73535156 C199.23513672 300.34088867 197.74175781 300.94642578 196.203125 301.5703125 C195.05941185 302.03382362 195.05941185 302.03382362 193.89259338 302.50669861 C193.12116501 302.81926102 192.34973663 303.13182343 191.55493164 303.45385742 C190.77522003 303.76970795 189.99550842 304.08555847 189.19216919 304.41098022 C188.40687836 304.72910675 187.62158752 305.04723328 186.8125 305.375 C186.02374481 305.69465729 185.23498962 306.01431458 184.42233276 306.34365845 C183.63255035 306.66377899 182.84276794 306.98389954 182.02905273 307.3137207 C180.84721153 307.792761 180.84721153 307.792761 179.64149475 308.28147888 C178.46350563 308.75896324 178.46350563 308.75896324 177.26171875 309.24609375 C176.47804428 309.56373184 175.69436981 309.88136993 174.88694763 310.20863342 C174.11262894 310.52247482 173.33831024 310.83631622 172.54052734 311.15966797 C170.29296631 312.07063232 170.29296631 312.07063232 168 313 C166.63182129 313.55445801 165.26364258 314.10891602 163.85400391 314.68017578 C162.54737793 315.20981934 161.24075195 315.73946289 159.89453125 316.28515625 C158.60788574 316.80698486 157.32124023 317.32881348 155.99560547 317.86645508 C154.07965576 318.64412231 154.07965576 318.64412231 152.125 319.4375 C150.18971436 320.22386841 150.18971436 320.22386841 148.21533203 321.02612305 C146.9054834 321.55890869 145.59563477 322.09169434 144.24609375 322.640625 C142.91175293 323.18396484 141.57741211 323.72730469 140.20263672 324.28710938 C138.8157666 324.85236328 137.42889648 325.41761719 136 326 C134.51902832 326.60392578 133.03805664 327.20785156 131.51220703 327.83007812 C130.74863388 328.14169891 129.98506073 328.4533197 129.198349 328.77438354 C128.42262039 329.09118073 127.64689178 329.40797791 126.84765625 329.734375 C126.06294449 330.05511993 125.27823273 330.37586487 124.46974182 330.70632935 C123.67623825 331.03092133 122.88273468 331.35551331 122.06518555 331.68994141 C121.26317719 332.01826965 120.46116882 332.3465979 119.63485718 332.68487549 C118.82722931 333.01574158 118.01960144 333.34660767 117.1875 333.6875 C116.37834137 334.01917175 115.56918274 334.35084351 114.73550415 334.69256592 C113.92149139 335.02653381 113.10747864 335.36050171 112.26879883 335.70458984 C111.44795303 336.04177032 110.62710724 336.37895081 109.78138733 336.72634888 C108.95376389 337.06673187 108.12614044 337.40711487 107.2734375 337.7578125 C106.4387645 338.10149872 105.60409149 338.44518494 104.74412537 338.79928589 C103.90140579 339.14685944 103.05868622 339.49443298 102.19042969 339.85253906 C101.33944702 340.20417114 100.48846436 340.55580322 99.61169434 340.91809082 C98.74983521 341.27512085 97.88797607 341.63215088 97 342 C95.68400818 342.54714661 95.68400818 342.54714661 94.34143066 343.10534668 C93.45435425 343.47502563 92.56727783 343.84470459 91.65332031 344.22558594 C90.76011078 344.59841202 89.86690125 344.9712381 88.94662476 345.35536194 C88.04900421 345.73051437 87.15138367 346.10566681 86.2265625 346.4921875 C84.87783554 347.05630592 84.87783554 347.05630592 83.50186157 347.63182068 C82.15104996 348.19728355 82.15104996 348.19728355 80.77294922 348.77416992 C79.87171326 349.15173431 78.97047729 349.52929871 78.04193115 349.91830444 C77.14121887 350.29588898 76.24050659 350.67347351 75.3125 351.0625 C74.41323792 351.4396817 73.51397583 351.8168634 72.58746338 352.20547485 C71.69122253 352.58150848 70.79498169 352.95754211 69.87158203 353.3449707 C68.98000397 353.71907578 68.0884259 354.09318085 67.16983032 354.47862244 C66.28363007 354.85048172 65.39742981 355.222341 64.484375 355.60546875 C63.60373383 355.97503189 62.72309265 356.34459503 61.81576538 356.72535706 C60.94392609 357.09104294 60.07208679 357.45672882 59.17382812 357.83349609 C58.31265381 358.19441345 57.45147949 358.55533081 56.56420898 358.92718506 C55.71802002 359.28121399 54.87183105 359.63524292 54 360 C53.1757251 360.34371643 52.3514502 360.68743286 51.50219727 361.04156494 C50.69387451 361.37799011 49.88555176 361.71441528 49.05273438 362.06103516 C48.25679367 362.39197678 47.46085297 362.7229184 46.64079285 363.06388855 C45.85698746 363.38956314 45.07318207 363.71523773 44.265625 364.05078125 C43.49297806 364.37182327 42.72033112 364.6928653 41.92427063 365.02363586 C41.16140244 365.34059921 40.39853424 365.65756256 39.61254883 365.98413086 C38.11103271 366.60811768 36.6095166 367.23210449 35.0625 367.875 C33.57065186 368.49576416 32.07880371 369.11652832 30.54174805 369.75610352 C29.09324463 370.35994873 27.64474121 370.96379395 26.15234375 371.5859375 C24.75870605 372.16827148 23.36506836 372.75060547 21.92919922 373.35058594 C19.98424561 374.1670459 19.98424561 374.1670459 18 375 C16.87996582 375.47469727 15.75993164 375.94939453 14.60595703 376.43847656 C13.56165527 376.88416992 12.51735352 377.32986328 11.44140625 377.7890625 C10.40177734 378.23459473 9.36214844 378.68012695 8.29101562 379.13916016 C7.24623047 379.5882373 6.20144531 380.03731445 5.125 380.5 C4.06603516 380.95552246 3.00707031 381.41104492 1.91601562 381.88037109 C0.19608398 382.6202124 0.19608398 382.6202124 -1.55859375 383.375 C-2.82687012 383.92027344 -4.09514648 384.46554687 -5.40185547 385.02734375 C-6.11605652 385.33397949 -6.83025757 385.64061523 -7.56610107 385.95654297 C-8.36928772 386.30088379 -9.17247437 386.64522461 -10 387 C-10.94627258 387.40492676 -11.89254517 387.80985352 -12.86749268 388.22705078 C-13.90138123 388.66903809 -14.93526978 389.11102539 -16.00048828 389.56640625 C-17.08866852 390.03130463 -18.17684875 390.496203 -19.29800415 390.97518921 C-20.42813934 391.45775177 -21.55827454 391.94031433 -22.72265625 392.4375 C-23.87075775 392.92755524 -25.01885925 393.41761047 -26.20175171 393.92251587 C-27.36945099 394.42068817 -28.53715027 394.91886047 -29.74023438 395.43212891 C-30.92480225 395.93721985 -32.10937012 396.44231079 -33.32983398 396.96270752 C-34.52036377 397.47001404 -35.71089355 397.97732056 -36.9375 398.5 C-38.12335693 399.00488953 -39.30921387 399.50977905 -40.53100586 400.02996826 C-41.70864502 400.53103088 -42.88628418 401.03209351 -44.09960938 401.54833984 C-45.26277679 402.04298737 -46.42594421 402.53763489 -47.62435913 403.04727173 C-49.3436412 403.77797379 -49.3436412 403.77797379 -51.09765625 404.5234375 C-52.22893951 405.00388519 -53.36022278 405.48433289 -54.52578735 405.9793396 C-55.62216522 406.44474152 -56.71854309 406.91014343 -57.84814453 407.38964844 C-58.89883118 407.83546265 -59.94951782 408.28127686 -61.03204346 408.74060059 C-62.01146912 409.15620239 -62.99089478 409.5718042 -64 410 C-64.86598816 410.36790649 -65.73197632 410.73581299 -66.62420654 411.11486816 C-67.41579163 411.45111206 -68.20737671 411.78735596 -69.02294922 412.13378906 C-70.45783691 412.7419043 -71.89272461 413.35001953 -73.37109375 413.9765625 C-75.31508057 414.79568115 -75.31508057 414.79568115 -77.29833984 415.63134766 C-79.06878662 416.37070557 -79.06878662 416.37070557 -80.875 417.125 C-81.9985791 417.58825684 -83.1221582 418.05151367 -84.27978516 418.52880859 C-85.32312012 418.95242676 -86.36645508 419.37604492 -87.44140625 419.8125 C-88.3967627 420.19277344 -89.35211914 420.57304688 -90.33642578 420.96484375 C-91.21540527 421.30644531 -92.09438477 421.64804687 -93 422 C-93.80808105 422.30550781 -94.61616211 422.61101562 -95.44873047 422.92578125 C-96.19654785 423.19777344 -96.94436523 423.46976563 -97.71484375 423.75 C-99.06707031 424.20375 -100.41929687 424.6575 -101.8125 425.125 C-103.02164063 425.47175781 -104.23078125 425.81851562 -105.4765625 426.17578125 C-106.63929688 426.44777344 -107.80203125 426.71976563 -109 427 C-110.24523437 427.24105469 -111.49046875 427.48210937 -112.7734375 427.73046875 C-114.06507813 427.92253906 -115.35671875 428.11460937 -116.6875 428.3125 C-118.00234375 428.4465625 -119.3171875 428.580625 -120.671875 428.71875 C-122.10015625 428.8115625 -123.5284375 428.904375 -125 429 C-125.81662109 429.03996094 -126.63324219 429.07992188 -127.47460938 429.12109375 C-128.33376953 429.15332031 -129.19292969 429.18554688 -130.078125 429.21875 C-130.9561377 429.24001953 -131.83415039 429.26128906 -132.73876953 429.28320312 C-133.62935059 429.29287109 -134.51993164 429.30253906 -135.4375 429.3125 C-136.32937012 429.30927734 -137.22124023 429.30605469 -138.14013672 429.30273438 C-139.02459473 429.28533203 -139.90905273 429.26792969 -140.8203125 429.25 C-141.69204102 429.21777344 -142.56376953 429.18554688 -143.46191406 429.15234375 C-144.29948242 429.10207031 -145.13705078 429.05179688 -146 429 C-147.50304687 428.835 -149.00609375 428.67 -150.5546875 428.5 C-151.95976562 428.273125 -153.36484375 428.04625 -154.8125 427.8125 C-156.86791016 427.39291016 -156.86791016 427.39291016 -158.96484375 426.96484375 C-160.29644531 426.64644531 -161.62804687 426.32804687 -163 426 C-164.30066406 425.67128906 -165.60132813 425.34257813 -166.94140625 425.00390625 C-168.23949219 424.63136719 -169.53757812 424.25882813 -170.875 423.875 C-172.17695313 423.44574219 -173.47890625 423.01648438 -174.8203125 422.57421875 C-176.19960938 422.05472656 -177.57890625 421.53523438 -179 421 C-179.77698242 420.67725098 -180.55396484 420.35450195 -181.35449219 420.02197266 C-182.16305664 419.67054199 -182.97162109 419.31911133 -183.8046875 418.95703125 C-184.61993896 418.58932617 -185.43519043 418.22162109 -186.27514648 417.84277344 C-187.50019897 417.27091309 -187.50019897 417.27091309 -188.75 416.6875 C-189.55961182 416.29723633 -190.36922363 415.90697266 -191.20336914 415.50488281 C-191.99090576 415.11268555 -192.77844238 414.72048828 -193.58984375 414.31640625 C-195.77287109 413.16978516 -195.77287109 413.16978516 -198 412 C-199.11503906 411.34902344 -200.23007812 410.69804688 -201.37890625 410.02734375 C-202.34699219 409.39957031 -203.31507813 408.77179688 -204.3125 408.125 C-205.240625 407.47015625 -206.16875 406.8153125 -207.125 406.140625 C-208.07375 405.43421875 -209.0225 404.7278125 -210 404 C-211.093125 403.19046875 -212.18625 402.3809375 -213.3125 401.546875 C-215.045 400.22429687 -215.045 400.22429687 -216.8125 398.875 C-217.9778125 397.94558594 -219.143125 397.01617188 -220.34375 396.05859375 C-221.5503125 395.04925781 -222.756875 394.03992188 -224 393 C-224.639375 392.43941895 -225.27875 391.87883789 -225.9375 391.30126953 C-226.5871875 390.71845215 -227.236875 390.13563477 -227.90625 389.53515625 C-228.55319824 388.94452393 -229.20014648 388.3538916 -229.86669922 387.74536133 C-230.50881348 387.14876709 -231.15092773 386.55217285 -231.8125 385.9375 C-232.44816895 385.33639404 -233.08383789 384.73528809 -233.73876953 384.1159668 C-234.35349121 383.525979 -234.96821289 382.93599121 -235.6015625 382.328125 C-237.28378906 380.68070313 -237.28378906 380.68070313 -239 379 C-239.83273438 378.16984375 -240.66546875 377.3396875 -241.5234375 376.484375 C-242.23757812 375.72640625 -242.95171875 374.9684375 -243.6875 374.1875 C-244.37199219 373.39988281 -245.05648437 372.61226562 -245.76171875 371.80078125 C-246.50035156 370.87652344 -247.23898438 369.95226562 -248 369 C-248.95519531 367.73542969 -249.91039062 366.47085937 -250.89453125 365.16796875 C-251.65757568 364.12443237 -251.65757568 364.12443237 -252.43603516 363.05981445 C-252.95214355 362.33882568 -253.46825195 361.61783691 -254 360.875 C-254.76642822 359.77901489 -254.76642822 359.77901489 -255.54833984 358.66088867 C-256.05187988 357.92459229 -256.55541992 357.1882959 -257.07421875 356.4296875 C-257.81551025 355.32125488 -257.81551025 355.32125488 -258.57177734 354.19042969 C-259.27874756 353.10616699 -259.27874756 353.10616699 -260 352 C-260.83144531 350.66195313 -261.66289062 349.32390625 -262.51953125 347.9453125 C-263.65455078 345.99238281 -263.65455078 345.99238281 -264.8125 344 C-265.5240625 342.69675781 -266.235625 341.39351562 -266.96875 340.05078125 C-267.6390625 338.71402344 -268.309375 337.37726563 -269 336 C-269.6496875 334.54980469 -270.299375 333.09960938 -270.96875 331.60546875 C-271.5771875 330.14753906 -272.185625 328.68960937 -272.8125 327.1875 C-273.37066406 325.7746875 -273.92882812 324.361875 -274.50390625 322.90625 C-275.24447266 320.97265625 -275.24447266 320.97265625 -276 319 C-276.40089844 317.9790625 -276.80179688 316.958125 -277.21484375 315.90625 C-277.55644531 315.0090625 -277.89804687 314.111875 -278.25 313.1875 C-278.55164063 312.3315625 -278.85328125 311.475625 -279.1640625 310.59375 C-279.43992187 309.7378125 -279.71578125 308.881875 -280 308 C-280.27585937 307.0615625 -280.55171875 306.123125 -280.8359375 305.15625 C-281.22652344 303.68671875 -281.22652344 303.68671875 -281.625 302.1875 C-281.8621875 301.18976563 -282.099375 300.19203125 -282.34375 299.1640625 C-282.66859375 297.59785156 -282.66859375 297.59785156 -283 296 C-283.1959375 294.87335938 -283.391875 293.74671875 -283.59375 292.5859375 C-283.85671875 290.84183594 -283.85671875 290.84183594 -284.125 289.0625 C-284.2796875 287.88042969 -284.434375 286.69835937 -284.59375 285.48046875 C-284.7278125 284.33191406 -284.861875 283.18335938 -285 282 C-285.1134375 280.98550781 -285.226875 279.97101563 -285.34375 278.92578125 C-285.4365625 277.91902344 -285.529375 276.91226562 -285.625 275.875 C-285.6971875 274.823125 -285.769375 273.77125 -285.84375 272.6875 C-285.8953125 271.470625 -285.946875 270.25375 -286 269 C-286.0309375 267.39125 -286.061875 265.7825 -286.09375 264.125 C-286.10148438 263.26535645 -286.10921875 262.40571289 -286.1171875 261.52001953 C-286.11976563 260.64716309 -286.12234375 259.77430664 -286.125 258.875 C-286.12242187 258.00601074 -286.11984375 257.13702148 -286.1171875 256.24169922 C-286.10558594 254.97350342 -286.10558594 254.97350342 -286.09375 253.6796875 C-286.0628125 252.13539063 -286.031875 250.59109375 -286 249 C-285.9484375 247.90945313 -285.896875 246.81890625 -285.84375 245.6953125 C-285.7715625 244.80585937 -285.699375 243.91640625 -285.625 243 C-285.52703125 242.16210938 -285.4290625 241.32421875 -285.328125 240.4609375 C-285.21984375 239.64882813 -285.1115625 238.83671875 -285 238 C-284.91234375 237.14664063 -284.8246875 236.29328125 -284.734375 235.4140625 C-284.61578125 234.49367188 -284.4971875 233.57328125 -284.375 232.625 C-284.20097656 231.635 -284.02695312 230.645 -283.84765625 229.625 C-283.56792969 228.42875 -283.28820312 227.2325 -283 226 C-282.78069824 225.22269531 -282.56139648 224.44539062 -282.33544922 223.64453125 C-282.07908691 222.79246094 -281.82272461 221.94039062 -281.55859375 221.0625 C-281.27991455 220.1768335 -281.00123535 219.29116699 -280.71411133 218.37866211 C-280.41657959 217.46995361 -280.11904785 216.56124512 -279.8125 215.625 C-279.50272217 214.71177979 -279.19294434 213.79855957 -278.8737793 212.85766602 C-278.55707275 211.95717529 -278.24036621 211.05668457 -277.9140625 210.12890625 C-277.5934082 209.25121582 -277.27275391 208.37352539 -276.94238281 207.46923828 C-276.63139648 206.65438965 -276.32041016 205.83954102 -276 205 C-275.45085937 203.68902344 -274.90171875 202.37804687 -274.3359375 201.02734375 C-273.79195312 199.88394531 -273.24796875 198.74054688 -272.6875 197.5625 C-272.11128906 196.47582031 -271.53507813 195.38914062 -270.94140625 194.26953125 C-269.98041016 192.65111328 -269.98041016 192.65111328 -269 191 C-268.22527344 189.80761719 -267.45054687 188.61523438 -266.65234375 187.38671875 C-265.81832031 186.18660156 -264.98429687 184.98648438 -264.125 183.75 C-263.27035156 182.595 -262.41570312 181.44 -261.53515625 180.25 C-260.69855469 179.1775 -259.86195313 178.105 -259 177 C-258.25621094 176.0925 -257.51242187 175.185 -256.74609375 174.25 C-256.02550781 173.425 -255.30492187 172.6 -254.5625 171.75 C-253.45261719 170.56664062 -253.45261719 170.56664062 -252.3203125 169.359375 C-251.17175781 168.19148438 -251.17175781 168.19148438 -250 167 C-249.19304687 166.18015625 -248.38609375 165.3603125 -247.5546875 164.515625 C-246.69101563 163.68546875 -245.82734375 162.8553125 -244.9375 162 C-244.01195312 161.17886719 -243.08640625 160.35773438 -242.1328125 159.51171875 C-241.09898437 158.68285156 -240.06515625 157.85398437 -239 157 C-237.78054687 156.14019531 -236.56109375 155.28039062 -235.3046875 154.39453125 C-233.98726562 153.54246094 -232.66984375 152.69039062 -231.3125 151.8125 C-229.95640625 150.99265625 -228.6003125 150.1728125 -227.203125 149.328125 C-225.81609375 148.55984375 -224.4290625 147.7915625 -223 147 C-221.59234375 146.31421875 -220.1846875 145.6284375 -218.734375 144.921875 C-217.35765625 144.30828125 -215.9809375 143.6946875 -214.5625 143.0625 C-213.23734375 142.51207031 -211.9121875 141.96164062 -210.546875 141.39453125 C-209.37640625 140.93433594 -208.2059375 140.47414063 -207 140 C-206.15953125 139.67386719 -205.3190625 139.34773437 -204.453125 139.01171875 C-203.39351562 138.63466797 -203.39351562 138.63466797 -202.3125 138.25 C-200.1778125 137.63125 -200.1778125 137.63125 -198 137 C-197.030625 136.76925781 -196.06125 136.53851563 -195.0625 136.30078125 C-193.99 136.05714844 -192.9175 135.81351563 -191.8125 135.5625 C-190.70390625 135.315 -189.5953125 135.0675 -188.453125 134.8125 C-187.31359375 134.544375 -186.1740625 134.27625 -185 134 C-183.86046875 133.690625 -182.7209375 133.38125 -181.546875 133.0625 C-180.39703125 132.7325 -179.2471875 132.4025 -178.0625 132.0625 C-176.31259766 131.55396484 -176.31259766 131.55396484 -174.52734375 131.03515625 C-173.36332031 130.69355469 -172.19929688 130.35195313 -171 130 C-169.86691406 129.66871094 -168.73382813 129.33742188 -167.56640625 128.99609375 C-166.43074219 128.66738281 -165.29507813 128.33867187 -164.125 128 C-162.39636719 127.505 -162.39636719 127.505 -160.6328125 127 C-159.43398438 126.67 -158.23515625 126.34 -157 126 C-155.69804687 125.67 -154.39609375 125.34 -153.0546875 125 C-151.04761719 124.505 -151.04761719 124.505 -149 124 C-147.80375 123.71125 -146.6075 123.4225 -145.375 123.125 C-143.93125 122.75375 -142.4875 122.3825 -141 122 C-139.99775391 121.71415039 -138.99550781 121.42830078 -137.96289062 121.13378906 C-136.83044922 120.80604492 -135.69800781 120.47830078 -134.53125 120.140625 C-133.31953125 119.79193359 -132.1078125 119.44324219 -130.859375 119.08398438 C-129.58578125 118.72626953 -128.3121875 118.36855469 -127 118 C-125.70578125 117.65775391 -124.4115625 117.31550781 -123.078125 116.96289062 C-121.74265625 116.61935547 -120.4071875 116.27582031 -119.03125 115.921875 C-117.65138916 115.5697998 -116.27152832 115.21772461 -114.84985352 114.85498047 C-113.41440186 114.49033691 -111.9789502 114.12569336 -110.5 113.75 C-108.97624756 113.36086426 -107.45249512 112.97172852 -105.88256836 112.57080078 C-104.33190674 112.1736084 -102.78124512 111.77641602 -101.18359375 111.3671875 C-99.6404248 110.97112305 -98.09725586 110.57505859 -96.50732422 110.16699219 C-95.01990723 109.78188477 -93.53249023 109.39677734 -92 109 C-89.97576904 108.46487793 -89.97576904 108.46487793 -87.91064453 107.91894531 C-86.6317334 107.57702148 -85.35282227 107.23509766 -84.03515625 106.8828125 C-82.78822998 106.54822021 -81.54130371 106.21362793 -80.2565918 105.86889648 C-78.42801636 105.37691772 -78.42801636 105.37691772 -76.5625 104.875 C-75.3556958 104.55023682 -74.1488916 104.22547363 -72.90551758 103.89086914 C-71.70693115 103.56981201 -70.50834473 103.24875488 -69.2734375 102.91796875 C-68.08331055 102.60134277 -66.89318359 102.2847168 -65.66699219 101.95849609 C-64.45688477 101.64219238 -63.24677734 101.32588867 -62 101 C-60.72286133 100.67725098 -59.44572266 100.35450195 -58.12988281 100.02197266 C-56.84178711 99.70147949 -55.55369141 99.38098633 -54.2265625 99.05078125 C-52.96126709 98.73705566 -51.69597168 98.42333008 -50.39233398 98.10009766 C-49.16973877 97.79894043 -47.94714355 97.4977832 -46.6875 97.1875 C-45.54289307 96.9095459 -44.39828613 96.6315918 -43.21899414 96.34521484 C-42.13996826 96.08047363 -41.06094238 95.81573242 -39.94921875 95.54296875 C-38.93061768 95.28797607 -37.9120166 95.0329834 -36.86254883 94.77026367 C-35.91790771 94.51607666 -34.9732666 94.26188965 -34 94 C-33.14494873 93.72841064 -32.28989746 93.45682129 -31.40893555 93.17700195 C-30.63203369 92.91234131 -29.85513184 92.64768066 -29.0546875 92.375 C-27.71664063 91.92125 -26.37859375 91.4675 -25 91 C-23.48212891 90.63841797 -23.48212891 90.63841797 -21.93359375 90.26953125 C-21.10988281 90.11871094 -20.28617187 89.96789062 -19.4375 89.8125 C-17.973125 89.544375 -16.50875 89.27625 -15 89 C-15 90.65 -15 92.3 -15 94 C-15.66 94 -16.32 94 -17 94 C-17 95.32 -17 96.64 -17 98 C-17.94875 98.9075 -18.8975 99.815 -19.875 100.75 C-20.90625 101.4925 -21.9375 102.235 -23 103 C-23.66 103 -24.32 103 -25 103 C-25 103.66 -25 104.32 -25 105 C-26.08539063 105.55429687 -27.17078125 106.10859375 -28.2890625 106.6796875 C-29.71992188 107.40414062 -31.15078125 108.12859375 -32.625 108.875 C-34.04039062 109.59429687 -35.45578125 110.31359375 -36.9140625 111.0546875 C-38.26242187 111.69664062 -39.61078125 112.33859375 -41 113 C-42.16273438 113.41507812 -43.32546875 113.83015625 -44.5234375 114.2578125 C-45.34070313 114.50273437 -46.15796875 114.74765625 -47 115 C-47 115.66 -47 116.32 -47 117 C-46.09378906 116.80664062 -45.18757812 116.61328125 -44.25390625 116.4140625 C-43.03574219 116.15367187 -41.81757813 115.89328125 -40.5625 115.625 C-39.28632813 115.35300781 -38.01015625 115.08101563 -36.6953125 114.80078125 C-35.47585938 114.53652344 -34.25640625 114.27226562 -33 114 C-32.08992187 113.78730469 -31.17984375 113.57460938 -30.2421875 113.35546875 C-29.48164063 113.17628906 -28.72109375 112.99710937 -27.9375 112.8125 C-25.9884375 112.4103125 -25.9884375 112.4103125 -24 112 C-22.35 112 -20.7 112 -19 112 C-19 110.35 -19 108.7 -19 107 C-18.29875 106.401875 -17.5975 105.80375 -16.875 105.1875 C-15.92625 104.465625 -14.9775 103.74375 -14 103 C-12.4840625 101.14375 -12.4840625 101.14375 -10.9375 99.25 C-10.18146484 98.19232422 -10.18146484 98.19232422 -9.41015625 97.11328125 C-8.94480469 96.41589844 -8.47945313 95.71851563 -8 95 C-7.29875 93.824375 -6.5975 92.64875 -5.875 91.4375 C-5.25625 89.973125 -4.6375 88.50875 -4 87 C-3.43925781 85.32550781 -3.43925781 85.32550781 -2.8671875 83.6171875 C-2.49851562 82.36164063 -2.12984375 81.10609375 -1.75 79.8125 C-1.42515625 78.50539063 -1.1003125 77.19828125 -0.765625 75.8515625 C-0.51296875 74.58054687 -0.2603125 73.30953125 0 72 C0.12890625 70.93523437 0.2578125 69.87046875 0.390625 68.7734375 C0.42671875 67.75507813 0.4628125 66.73671875 0.5 65.6875 C0.46132813 64.64207031 0.42265625 63.59664063 0.3828125 62.51953125 C0.19332031 60.77736328 0.19332031 60.77736328 0 59 C-0.22945313 57.53949219 -0.45890625 56.07898438 -0.6953125 54.57421875 C-1.00210937 53.02347656 -1.30890625 51.47273438 -1.625 49.875 C-2.17220703 47.58755859 -2.17220703 47.58755859 -2.73046875 45.25390625 C-3.14941406 43.85011719 -3.56835938 42.44632812 -4 41 C-4.70576172 39.34291016 -4.70576172 39.34291016 -5.42578125 37.65234375 C-5.92464844 36.71519531 -6.42351562 35.77804687 -6.9375 34.8125 C-7.44410156 33.96042969 -7.95070313 33.10835938 -8.47265625 32.23046875 C-8.97667969 31.49441406 -9.48070312 30.75835937 -10 30 C-10.94875 28.88625 -11.8975 27.7725 -12.875 26.625 C-13.57625 25.42875 -14.2775 24.2325 -15 23 C-15.25716797 21.48019531 -15.25716797 21.48019531 -15.51953125 19.9296875 C-15.57496094 18.79789062 -15.63039063 17.66609375 -15.6875 16.5 C-15.63851563 15.37851562 -15.58953125 14.25703125 -15.5390625 13.1015625 C-15.36117188 12.07804687 -15.18328125 11.05453125 -15 10 C-14.195625 8.63875 -13.39125 7.2775 -12.5625 5.875 C-11.386875 4.92625 -10.21125 3.9775 -9 3 C-7.081875 2.0409375 -7.081875 2.0409375 -5.125 1.0625 C-4.36058594 0.85882813 -3.59617187 0.65515625 -2.80859375 0.4453125 C-1.88175781 0.29835938 -0.95492188 0.15140625 0 0 Z " transform="translate(486,296)" style="fill: #FCFDFB;"/></svg>