<svg id="svg" version="1.1" xmlns="http://www.w3.org/2000/svg" style="display: block;" viewBox="0 0 1024 1024"><path xmlns="http://www.w3.org/2000/svg" d="M0 0 C0.99 0.495 0.99 0.495 2 1 C1.05125 1.7425 0.1025 2.485 -0.875 3.25 C-1.90625 4.1575 -2.9375 5.065 -4 6 C-4.66 7.32 -5.32 8.64 -6 10 C-6.95519531 10.56203125 -7.91039062 11.1240625 -8.89453125 11.703125 C-10.18746094 12.21359375 -11.48039063 12.7240625 -12.8125 13.25 C-14.33746094 13.75789063 -15.86242187 14.26578125 -17.43359375 14.7890625 C-18.30483887 15.00981445 -19.17608398 15.23056641 -20.07373047 15.45800781 C-21.52223389 15.72629395 -21.52223389 15.72629395 -23 16 C-24.10102051 16.10924805 -25.20204102 16.21849609 -26.33642578 16.33105469 C-27.51575684 16.39454102 -28.69508789 16.45802734 -29.91015625 16.5234375 C-31.12960937 16.55405273 -32.3490625 16.58466797 -33.60546875 16.61621094 C-34.84941406 16.61911133 -36.09335937 16.62201172 -37.375 16.625 C-38.62023437 16.61243164 -39.86546875 16.59986328 -41.1484375 16.58691406 C-42.37949219 16.55049805 -43.61054687 16.51408203 -44.87890625 16.4765625 C-46.08305176 16.4137207 -47.28719727 16.35087891 -48.52783203 16.28613281 C-49.67364746 16.19170898 -50.81946289 16.09728516 -52 16 C-53.04397949 15.86174805 -54.08795898 15.72349609 -55.16357422 15.58105469 C-56.12924316 15.41766602 -57.09491211 15.25427734 -58.08984375 15.0859375 C-58.9833252 14.9111084 -59.87680664 14.7362793 -60.79736328 14.55615234 C-61.6273584 14.37262207 -62.45735352 14.1890918 -63.3125 14 C-65.56513672 13.443125 -65.56513672 13.443125 -67.86328125 12.875 C-69.41595703 12.441875 -69.41595703 12.441875 -71 12 C-71 11.34 -71 10.68 -71 10 C-72.00160156 9.79503906 -73.00320313 9.59007812 -74.03515625 9.37890625 C-75.36417969 9.10949219 -76.69320312 8.84007812 -78.0625 8.5625 C-79.37347656 8.29566406 -80.68445313 8.02882813 -82.03515625 7.75390625 C-83.34355469 7.50511719 -84.65195312 7.25632812 -86 7 C-87.31871094 6.80277344 -88.63742187 6.60554688 -89.99609375 6.40234375 C-91.48302734 6.20318359 -91.48302734 6.20318359 -93 6 C-92.34 5.34 -91.68 4.68 -91 4 C-90.01 3.67 -89.02 3.34 -88 3 C-86.9275 2.87625 -85.855 2.7525 -84.75 2.625 C-83.1825 2.74875 -81.615 2.8725 -80 3 C-78.22882812 3.51820313 -78.22882812 3.51820313 -76.421875 4.046875 C-75.12765625 4.48515625 -73.8334375 4.9234375 -72.5 5.375 C-71.2728125 5.81585938 -70.045625 6.25671875 -68.78125 6.7109375 C-67.5334375 7.13632812 -66.285625 7.56171875 -65 8 C-63.81792969 8.37769531 -62.63585937 8.75539063 -61.41796875 9.14453125 C-59.23107422 9.56798828 -59.23107422 9.56798828 -57 10 C-55.96375488 10.06703125 -54.92750977 10.1340625 -53.85986328 10.203125 C-52.11358643 10.25146484 -52.11358643 10.25146484 -50.33203125 10.30078125 C-49.10806641 10.30787109 -47.88410156 10.31496094 -46.62304688 10.32226562 C-45.36556641 10.31904297 -44.10808594 10.31582031 -42.8125 10.3125 C-41.57435547 10.32861328 -40.33621094 10.34472656 -39.06054688 10.36132812 C-37.83013672 10.36197266 -36.59972656 10.36261719 -35.33203125 10.36328125 C-34.11402832 10.33314941 -32.89602539 10.30301758 -31.64111328 10.27197266 C-30.4395459 10.18222168 -29.23797852 10.0924707 -28 10 C-26.8022998 9.79552246 -25.60459961 9.59104492 -24.37060547 9.38037109 C-22.66155029 8.99679443 -22.66155029 8.99679443 -20.91796875 8.60546875 C-19.90887451 8.3530542 -18.89978027 8.10063965 -17.86010742 7.84057617 C-16.91627197 7.56318604 -15.97243652 7.2857959 -15 7 C-14.06325439 6.67813721 -13.12650879 6.35627441 -12.16137695 6.0246582 C-11.28312256 5.686521 -10.40486816 5.34838379 -9.5 5 C-8.015 4.34 -6.53 3.68 -5 3 C-4.01 2.401875 -3.02 1.80375 -2 1.1875 C-1.34 0.795625 -0.68 0.40375 0 0 Z " transform="translate(633,377)" style="fill: #B5D678;"/></svg>