<svg id="svg" version="1.1" xmlns="http://www.w3.org/2000/svg" style="display: block;" viewBox="0 0 1024 1024"><path xmlns="http://www.w3.org/2000/svg" d="M0 0 C1.19625 0.0825 2.3925 0.165 3.625 0.25 C4.40875 0.4975 5.1925 0.745 6 1 C5.67 2.32 5.34 3.64 5 5 C4.36835937 5.45761719 3.73671875 5.91523438 3.0859375 6.38671875 C1.74402344 7.03060547 1.74402344 7.03060547 0.375 7.6875 C-0.69492187 8.1928125 -1.76484375 8.698125 -2.8671875 9.21875 C-4.23101563 9.8065625 -5.59484375 10.394375 -7 11 C-7.88848633 11.36351562 -8.77697266 11.72703125 -9.69238281 12.1015625 C-10.66272461 12.49085938 -11.63306641 12.88015625 -12.6328125 13.28125 C-14.13980713 13.87740112 -14.13980713 13.87740112 -15.67724609 14.4855957 C-16.69125488 14.88222412 -17.70526367 15.27885254 -18.75 15.6875 C-20.22267334 16.25827271 -20.22267334 16.25827271 -21.72509766 16.84057617 C-23.15281494 17.38935425 -23.15281494 17.38935425 -24.609375 17.94921875 C-25.5286377 18.29992432 -26.44790039 18.65062988 -27.39501953 19.01196289 C-28.25466309 19.33801514 -29.11430664 19.66406738 -30 20 C-31.45664062 20.54914063 -32.91328125 21.09828125 -34.4140625 21.6640625 C-35.59742188 22.10492188 -36.78078125 22.54578125 -38 23 C-39.52625 23.556875 -41.0525 24.11375 -42.625 24.6875 C-44.06875 25.120625 -45.5125 25.55375 -47 26 C-48.175625 26.061875 -49.35125 26.12375 -50.5625 26.1875 C-51.7690625 26.0946875 -51.7690625 26.0946875 -53 26 C-52.67 24.68 -52.34 23.36 -52 22 C-51.2587085 21.51805176 -50.51741699 21.03610352 -49.75366211 20.53955078 C-48.77147705 20.09595215 -47.78929199 19.65235352 -46.77734375 19.1953125 C-45.68873047 18.69708984 -44.60011719 18.19886719 -43.47851562 17.68554688 C-42.30998047 17.17056641 -41.14144531 16.65558594 -39.9375 16.125 C-38.16342773 15.32545898 -38.16342773 15.32545898 -36.35351562 14.50976562 C-35.17337891 13.98318359 -33.99324219 13.45660156 -32.77734375 12.9140625 C-31.61315918 12.4077832 -30.44897461 11.90150391 -29.24951172 11.37988281 C-28.17717285 10.92452148 -27.10483398 10.46916016 -26 10 C-25.13004395 9.64518555 -24.26008789 9.29037109 -23.36376953 8.92480469 C-22.60563965 8.62735352 -21.84750977 8.32990234 -21.06640625 8.0234375 C-19.05353516 7.26933594 -19.05353516 7.26933594 -17 6.5 C-15.77539062 6.06558594 -14.55078125 5.63117188 -13.2890625 5.18359375 C-12.20367188 4.79300781 -11.11828125 4.40242188 -10 4 C-9.01773438 3.57847656 -8.03546875 3.15695312 -7.0234375 2.72265625 C-6.14945313 2.33980469 -5.27546875 1.95695312 -4.375 1.5625 C-2.209375 0.7890625 -2.209375 0.7890625 0 0 Z " transform="translate(801,464)" style="fill: #75B630;"/></svg>