<svg id="svg" version="1.1" xmlns="http://www.w3.org/2000/svg" style="display: block;" viewBox="0 0 1024 1024"><path xmlns="http://www.w3.org/2000/svg" d="M0 0 C1.10988281 -0.11472656 2.21976562 -0.22945313 3.36328125 -0.34765625 C4.97783203 -0.39212891 4.97783203 -0.39212891 6.625 -0.4375 C8.22408203 -0.375625 8.22408203 -0.375625 9.85546875 -0.3125 C11.41201172 -0.1578125 11.41201172 -0.1578125 13 0 C13.98613281 0.144375 14.97226562 0.28875 15.98828125 0.4375 C17.44814453 0.746875 17.44814453 0.746875 18.9375 1.0625 C19.90171875 1.33449219 20.8659375 1.60648437 21.859375 1.88671875 C23.41398437 2.43779297 23.41398437 2.43779297 25 3 C26.89492188 3.78310547 26.89492188 3.78310547 28.828125 4.58203125 C30.10171875 5.17371094 31.3753125 5.76539063 32.6875 6.375 C33.86699219 6.93960937 35.04648437 7.50421875 36.26171875 8.0859375 C37.16535156 8.71757812 38.06898438 9.34921875 39 10 C39.44279297 11.34964844 39.44279297 11.34964844 39.89453125 12.7265625 C39.94673828 13.85191406 39.94673828 13.85191406 40 15 C39.26652344 14.88398438 38.53304687 14.76796875 37.77734375 14.6484375 C36.86082031 14.43445313 35.94429688 14.22046875 35 14 C34.27941406 13.64164062 33.55882812 13.28328125 32.81640625 12.9140625 C31.70072266 12.27597656 31.70072266 12.27597656 30.5625 11.625 C29.69753906 11.18027344 28.83257812 10.73554688 27.94140625 10.27734375 C26.97074219 9.85582031 26.00007813 9.43429687 25 9 C23.31197266 8.50693359 23.31197266 8.50693359 21.58984375 8.00390625 C20.40519531 7.73449219 19.22054687 7.46507812 18 7.1875 C16.80890625 6.960625 15.6178125 6.73375 14.390625 6.5 C13.27171875 6.335 12.1528125 6.17 11 6 C10.08734375 5.9175 9.1746875 5.835 8.234375 5.75 C7.41453125 5.729375 6.5946875 5.70875 5.75 5.6875 C3.39875 5.8421875 3.39875 5.8421875 1 6 C-1.35125 6.2784375 -1.35125 6.2784375 -3.75 6.5625 C-4.56210937 6.74039062 -5.37421875 6.91828125 -6.2109375 7.1015625 C-7.13132812 7.39804687 -8.05171875 7.69453125 -9 8 C-10.78277344 8.78503906 -10.78277344 8.78503906 -12.6015625 9.5859375 C-13.84679687 10.19695312 -15.09203125 10.80796875 -16.375 11.4375 C-17.53773438 12.03433594 -18.70046875 12.63117188 -19.8984375 13.24609375 C-20.92195313 13.82488281 -21.94546875 14.40367187 -23 15 C-24.32 15.99 -25.64 16.98 -27 18 C-28.0725 18.556875 -29.145 19.11375 -30.25 19.6875 C-31.1575 20.120625 -32.065 20.55375 -33 21 C-32.34 19.68 -31.68 18.36 -31 17 C-30.01 15.88625 -29.02 14.7725 -28 13.625 C-27.37222656 13.02300781 -26.74445313 12.42101562 -26.09765625 11.80078125 C-25.40542969 11.20652344 -24.71320313 10.61226563 -24 10 C-23.27683594 9.45730469 -22.55367188 8.91460937 -21.80859375 8.35546875 C-20.63490234 7.59169922 -20.63490234 7.59169922 -19.4375 6.8125 C-18.58671875 6.33167969 -17.7359375 5.85085938 -16.859375 5.35546875 C-15.91578125 4.90816406 -14.9721875 4.46085937 -14 4 C-12.36804688 3.37544922 -12.36804688 3.37544922 -10.703125 2.73828125 C-8.96289062 2.18720703 -8.96289062 2.18720703 -7.1875 1.625 C-5.40279297 1.16287109 -5.40279297 1.16287109 -3.58203125 0.69140625 C-2.39996094 0.46324219 -1.21789062 0.23507812 0 0 Z " transform="translate(304,496)" style="fill: #78B32E;"/></svg>