<svg id="svg" version="1.1" xmlns="http://www.w3.org/2000/svg" style="display: block;" viewBox="0 0 1024 1024"><path xmlns="http://www.w3.org/2000/svg" d="M0 0 C0.66 0 1.32 0 2 0 C1.5875 1.485 1.175 2.97 0.75 4.5 C0.48058594 5.50933594 0.21117187 6.51867187 -0.06640625 7.55859375 C-0.37449219 8.69425781 -0.68257813 9.82992187 -1 11 C-1.35964844 12.20785156 -1.71929687 13.41570313 -2.08984375 14.66015625 C-2.45207031 15.94792969 -2.81429688 17.23570312 -3.1875 18.5625 C-3.52523438 19.92632813 -3.86296875 21.29015625 -4.2109375 22.6953125 C-4.60152344 24.82613281 -4.60152344 24.82613281 -5 27 C-5.14308594 29.19269531 -5.14308594 29.19269531 -5.2890625 31.4296875 C-5.29679687 32.91726563 -5.30453125 34.40484375 -5.3125 35.9375 C-5.27769531 37.41863281 -5.24289062 38.89976562 -5.20703125 40.42578125 C-5.13871094 41.93527344 -5.07039063 43.44476562 -5 45 C-4.92136719 46.62292969 -4.84273438 48.24585938 -4.76171875 49.91796875 C-4.67535156 51.47128906 -4.58898437 53.02460937 -4.5 54.625 C-4.4071875 56.04039062 -4.314375 57.45578125 -4.21875 58.9140625 C-4.1465625 59.93242188 -4.074375 60.95078125 -4 62 C-4.99 60.68 -5.98 59.36 -7 58 C-7.31324219 57.24847656 -7.62648438 56.49695313 -7.94921875 55.72265625 C-8.19285156 54.84480469 -8.43648438 53.96695313 -8.6875 53.0625 C-9.05294922 51.4846875 -9.05294922 51.4846875 -9.42578125 49.875 C-9.61527344 48.59625 -9.80476562 47.3175 -10 46 C-10.05849121 45.20722656 -10.11698242 44.41445313 -10.17724609 43.59765625 C-10.21543457 42.74042969 -10.25362305 41.88320313 -10.29296875 41 C-10.31439941 40.11280273 -10.33583008 39.22560547 -10.35791016 38.31152344 C-10.3635498 37.4043457 -10.36918945 36.49716797 -10.375 35.5625 C-10.36774902 34.65016602 -10.36049805 33.73783203 -10.35302734 32.79785156 C-10.33062988 31.9003418 -10.30823242 31.00283203 -10.28515625 30.078125 C-10.24664551 29.20736328 -10.20813477 28.33660156 -10.16845703 27.43945312 C-10.11286621 26.63443359 -10.05727539 25.82941406 -10 25 C-9.83371094 23.71609375 -9.66742188 22.4321875 -9.49609375 21.109375 C-9.27050781 20.02140625 -9.04492188 18.9334375 -8.8125 17.8125 C-8.40644531 16.3275 -8.40644531 16.3275 -7.9921875 14.8125 C-7.50105469 13.4203125 -7.50105469 13.4203125 -7 12 C-6.59007812 11.030625 -6.18015625 10.06125 -5.7578125 9.0625 C-5.32210938 8.155 -4.88640625 7.2475 -4.4375 6.3125 C-3.633125 4.889375 -2.82875 3.46625 -2 2 C-1.34 1.34 -0.68 0.68 0 0 Z " transform="translate(265,527)" style="fill: #71B331;"/></svg>