<svg id="svg" version="1.1" xmlns="http://www.w3.org/2000/svg" style="display: block;" viewBox="0 0 1024 1024"><path xmlns="http://www.w3.org/2000/svg" d="M0 0 C1.44375 -0.061875 2.8875 -0.12375 4.375 -0.1875 C6.169375 -0.0946875 6.169375 -0.0946875 8 0 C8.99 0.66 9.98 1.32 11 2 C11.12375 3.340625 11.2475 4.68125 11.375 6.0625 C11.189375 8.5065625 11.189375 8.5065625 11 11 C10.30583984 12.99546875 10.30583984 12.99546875 9.59765625 15.03125 C9.32630859 15.81185791 9.05496094 16.59246582 8.77539062 17.39672852 C8.51951172 18.25580811 8.26363281 19.1148877 8 20 C7.72446289 21.42107056 7.72446289 21.42107056 7.44335938 22.87084961 C7.28802734 23.88155518 7.13269531 24.89226074 6.97265625 25.93359375 C6.82280273 26.98538818 6.67294922 28.03718262 6.51855469 29.12084961 C6.36805664 30.21534424 6.21755859 31.30983887 6.0625 32.4375 C5.80774902 34.15948608 5.80774902 34.15948608 5.54785156 35.91625977 C5.37350586 37.06795654 5.19916016 38.21965332 5.01953125 39.40625 C4.84760254 40.53417969 4.67567383 41.66210938 4.49853516 42.82421875 C4.33401855 43.87222656 4.16950195 44.92023438 4 46 C3.85481934 46.87527344 3.70963867 47.75054687 3.56005859 48.65234375 C3.35050537 49.82990234 3.35050537 49.82990234 3.13671875 51.03125 C2.84410156 52.4853125 2.55148437 53.939375 2.25 55.4375 C1.75693359 57.54125 1.75693359 57.54125 1.25390625 59.6875 C0.63322266 61.8221875 0.63322266 61.8221875 0 64 C-0.41789795 65.20076172 -0.41789795 65.20076172 -0.84423828 66.42578125 C-1.15474121 67.25464844 -1.46524414 68.08351563 -1.78515625 68.9375 C-2.11273926 69.76580322 -2.44032227 70.59410645 -2.77783203 71.44750977 C-3.11927246 72.26920654 -3.46071289 73.09090332 -3.8125 73.9375 C-4.1616748 74.74050537 -4.51084961 75.54351074 -4.87060547 76.37084961 C-5.2213916 77.14436768 -5.57217773 77.91788574 -5.93359375 78.71484375 C-6.61550781 80.12894531 -7.29742188 81.54304688 -8 83 C-8.56847656 84.07378906 -9.13695312 85.14757812 -9.72265625 86.25390625 C-10.26792969 87.16011719 -10.81320312 88.06632812 -11.375 89 C-12.23351562 90.24910156 -12.23351562 90.24910156 -13.109375 91.5234375 C-13.73328125 92.34070313 -14.3571875 93.15796875 -15 94 C-15.72703125 94.92039062 -16.4540625 95.84078125 -17.203125 96.7890625 C-18.00234375 97.72492188 -18.8015625 98.66078125 -19.625 99.625 C-20.4809375 100.52992188 -21.336875 101.43484375 -22.21875 102.3671875 C-23.1365625 103.23601562 -24.054375 104.10484375 -25 105 C-25.9796875 105.80695313 -26.959375 106.61390625 -27.96875 107.4453125 C-29.0103125 108.20585937 -30.051875 108.96640625 -31.125 109.75 C-32.22199219 110.46929687 -33.31898438 111.18859375 -34.44921875 111.9296875 C-35.62097656 112.61289062 -36.79273438 113.29609375 -38 114 C-39.28519531 114.66257812 -40.57039062 115.32515625 -41.89453125 116.0078125 C-43.22871094 116.62398438 -44.56289063 117.24015625 -45.9375 117.875 C-47.29746094 118.43058594 -48.65742187 118.98617187 -50.05859375 119.55859375 C-52.00958984 120.27208984 -52.00958984 120.27208984 -54 121 C-55.08410156 121.36222656 -56.16820312 121.72445312 -57.28515625 122.09765625 C-58.34605469 122.37480469 -59.40695312 122.65195312 -60.5 122.9375 C-61.63050781 123.14246094 -62.76101563 123.34742188 -63.92578125 123.55859375 C-65.94251953 123.77708984 -65.94251953 123.77708984 -68 124 C-68.87188965 124.0633252 -69.7437793 124.12665039 -70.64208984 124.19189453 C-71.59937988 124.2432959 -72.55666992 124.29469727 -73.54296875 124.34765625 C-75.04210815 124.39853394 -75.04210815 124.39853394 -76.5715332 124.45043945 C-77.59980225 124.46679443 -78.62807129 124.48314941 -79.6875 124.5 C-81.23473755 124.49842896 -81.23473755 124.49842896 -82.81323242 124.49682617 C-83.8416626 124.47209229 -84.87009277 124.4473584 -85.9296875 124.421875 C-86.94901367 124.37095703 -87.96833984 124.32003906 -89.01855469 124.26757812 C-90.49437012 124.13512695 -90.49437012 124.13512695 -92 124 C-92.91168945 123.85498047 -93.82337891 123.70996094 -94.76269531 123.56054688 C-95.62733398 123.38072266 -96.49197266 123.20089844 -97.3828125 123.015625 C-98.21296875 122.81477295 -99.043125 122.6139209 -99.8984375 122.40698242 C-100.69507813 122.19017822 -101.49171875 121.97337402 -102.3125 121.75 C-103.82070313 121.29753906 -105.32890625 120.84507812 -106.8828125 120.37890625 C-108.24148438 119.92386719 -109.60015625 119.46882813 -111 119 C-112.79050781 118.39478516 -112.79050781 118.39478516 -114.6171875 117.77734375 C-115.63039063 117.41769531 -116.64359375 117.05804688 -117.6875 116.6875 C-119.110625 116.130625 -120.53375 115.57375 -122 115 C-121.95746094 114.14148438 -121.91492188 113.28296875 -121.87109375 112.3984375 C-121.58363281 111.27695312 -121.29617188 110.15546875 -121 109 C-120.12472656 107.94039063 -119.24945312 106.88078125 -118.34765625 105.7890625 C-117.26355469 104.74492187 -116.17945313 103.70078125 -115.0625 102.625 C-113.98097656 101.56539063 -112.89945313 100.50578125 -111.78515625 99.4140625 C-110.86605469 98.61742187 -109.94695313 97.82078125 -109 97 C-108.34 97 -107.68 97 -107 97 C-106.34 95.68 -105.68 94.36 -105 93 C-104.32855957 92.22648193 -103.65711914 91.45296387 -102.96533203 90.65600586 C-101.68698486 89.47856812 -101.68698486 89.47856812 -100.3828125 88.27734375 C-99.39442383 87.49085449 -98.40603516 86.70436523 -97.38769531 85.89404297 C-96.26975586 85.26900879 -95.15181641 84.64397461 -94 84 C-92.14133301 83.65606201 -92.14133301 83.65606201 -90.24511719 83.30517578 C-88.92415039 83.26763184 -87.60318359 83.23008789 -86.2421875 83.19140625 C-84.87449219 83.22943359 -83.50679687 83.26746094 -82.09765625 83.30664062 C-80.70417969 83.39107422 -79.31070313 83.47550781 -77.875 83.5625 C-76.47378906 83.61986328 -75.07257812 83.67722656 -73.62890625 83.73632812 C-72.26378906 83.78337891 -70.89867187 83.83042969 -69.4921875 83.87890625 C-68.18918701 83.92273438 -66.88618652 83.9665625 -65.54370117 84.01171875 C-63.78956909 84.00591797 -63.78956909 84.00591797 -62 84 C-60.61421753 83.83177734 -60.61421753 83.83177734 -59.20043945 83.66015625 C-58.42659912 83.49515625 -57.65275879 83.33015625 -56.85546875 83.16015625 C-55.58316406 82.77730469 -54.31085938 82.39445312 -53 82 C-51.98808594 81.64679688 -50.97617187 81.29359375 -49.93359375 80.9296875 C-49.10988281 80.58164062 -48.28617188 80.23359375 -47.4375 79.875 C-45.973125 79.25625 -44.50875 78.6375 -43 78 C-44.258125 78.495 -45.51625 78.99 -46.8125 79.5 C-47.72128906 79.77199219 -48.63007812 80.04398437 -49.56640625 80.32421875 C-50.69949219 80.54722656 -51.83257813 80.77023437 -53 81 C-54.45277344 81.08894531 -55.90554688 81.17789063 -57.40234375 81.26953125 C-59.80193359 81.29080078 -59.80193359 81.29080078 -62.25 81.3125 C-64.69792969 81.27189453 -64.69792969 81.27189453 -67.1953125 81.23046875 C-68.78085937 81.15441406 -70.36640625 81.07835937 -72 81 C-73.42054688 80.87238281 -74.84109375 80.74476563 -76.3046875 80.61328125 C-77.56539062 80.45214844 -78.82609375 80.29101562 -80.125 80.125 C-81.24132812 79.96257812 -82.35765625 79.80015625 -83.5078125 79.6328125 C-84.33023438 79.42398438 -85.15265625 79.21515625 -86 79 C-86.33 78.34 -86.66 77.68 -87 77 C-86.278125 76.27167969 -85.55625 75.54335938 -84.8125 74.79296875 C-83.884375 73.87128906 -82.95625 72.94960938 -82 72 C-81.195625 71.23300781 -80.39125 70.46601563 -79.5625 69.67578125 C-78.716875 68.89589844 -77.87125 68.11601562 -77 67.3125 C-75.55173828 66.00345703 -75.55173828 66.00345703 -74.07421875 64.66796875 C-73.05972656 63.78753906 -72.04523437 62.90710938 -71 62 C-69.99582031 61.19175781 -68.99164062 60.38351562 -67.95703125 59.55078125 C-66.91933594 58.75027344 -65.88164063 57.94976562 -64.8125 57.125 C-63.73871094 56.31417969 -62.66492188 55.50335938 -61.55859375 54.66796875 C-60.38425781 53.78753906 -59.20992187 52.90710938 -58 52 C-56.96576904 51.21230225 -56.96576904 51.21230225 -55.91064453 50.40869141 C-55.1886084 49.85745605 -54.46657227 49.3062207 -53.72265625 48.73828125 C-53.00037842 48.18962402 -52.27810059 47.6409668 -51.53393555 47.07568359 C-50.82148682 46.53508301 -50.10903809 45.99448242 -49.375 45.4375 C-48.68768799 44.91236816 -48.00037598 44.38723633 -47.29223633 43.84619141 C-46.64665771 43.35940918 -46.0010791 42.87262695 -45.3359375 42.37109375 C-44.23507812 41.58863281 -43.13421875 40.80617188 -42 40 C-41.01 39.67 -40.02 39.34 -39 39 C-39 37.68 -39 36.36 -39 35 C-39.928125 35.33 -40.85625 35.66 -41.8125 36 C-43.194375 36.66 -44.57625 37.32 -46 38 C-46.74121094 38.50273437 -47.48242188 39.00546875 -48.24609375 39.5234375 C-49.07238281 40.13445312 -49.89867187 40.74546875 -50.75 41.375 C-51.68972656 42.07882812 -52.62945313 42.78265625 -53.59765625 43.5078125 C-54.72042969 44.33023438 -55.84320312 45.15265625 -57 46 C-58.03809814 46.71687988 -58.03809814 46.71687988 -59.09716797 47.44824219 C-59.84756348 47.95774414 -60.59795898 48.46724609 -61.37109375 48.9921875 C-62.15355469 49.52142822 -62.93601562 50.05066895 -63.7421875 50.59594727 C-64.54914063 51.14178467 -65.35609375 51.68762207 -66.1875 52.25 C-67.00605469 52.8080835 -67.82460938 53.36616699 -68.66796875 53.94116211 C-69.4878125 54.50327393 -70.30765625 55.06538574 -71.15234375 55.64453125 C-71.96687012 56.2060791 -72.78139648 56.76762695 -73.62060547 57.34619141 C-74.40580566 57.89194824 -75.19100586 58.43770508 -76 59 C-76.71945801 59.5057959 -77.43891602 60.0115918 -78.18017578 60.53271484 C-78.86450684 61.02078613 -79.54883789 61.50885742 -80.25390625 62.01171875 C-81.57261719 62.97722656 -82.89132812 63.94273437 -84.25 64.9375 C-85.53003906 65.906875 -86.81007813 66.87625 -88.12890625 67.875 C-89.40636719 68.90625 -90.68382812 69.9375 -92 71 C-93.02262939 71.89332031 -93.02262939 71.89332031 -94.06591797 72.8046875 C-94.75443848 73.42601562 -95.44295898 74.04734375 -96.15234375 74.6875 C-96.82942383 75.31148682 -97.50650391 75.93547363 -98.20410156 76.57836914 C-98.85862305 77.19188232 -99.51314453 77.80539551 -100.1875 78.4375 C-101.97220703 80.13712891 -101.97220703 80.13712891 -103.79296875 81.87109375 C-104.85128906 82.90363281 -105.90960937 83.93617188 -107 85 C-107.92425781 85.96035156 -108.84851563 86.92070312 -109.80078125 87.91015625 C-110.88939453 88.94462891 -110.88939453 88.94462891 -112 90 C-112.66 90 -113.32 90 -114 90 C-114.66 91.32 -115.32 92.64 -116 94 C-116.61875 94.63421875 -117.2375 95.2684375 -117.875 95.921875 C-118.57625 96.52515625 -119.2775 97.1284375 -120 97.75 C-120.70125 98.36359375 -121.4025 98.9771875 -122.125 99.609375 C-122.74375 100.06828125 -123.3625 100.5271875 -124 101 C-124.66 101 -125.32 101 -126 101 C-126.66 99.68 -127.32 98.36 -128 97 C-128.19851563 96.15179688 -128.39703125 95.30359375 -128.6015625 94.4296875 C-128.73304688 93.29789062 -128.86453125 92.16609375 -129 91 C-129.05124023 90.2152832 -129.10248047 89.43056641 -129.15527344 88.62207031 C-129.19426758 87.73874023 -129.23326172 86.85541016 -129.2734375 85.9453125 C-129.29647949 85.00848633 -129.31952148 84.07166016 -129.34326172 83.10644531 C-129.35373535 82.12256836 -129.36420898 81.13869141 -129.375 80.125 C-129.37902832 79.1050293 -129.38305664 78.08505859 -129.38720703 77.03417969 C-129.37286621 76.00969727 -129.35852539 74.98521484 -129.34375 73.9296875 C-129.30507813 72.9200293 -129.26640625 71.91037109 -129.2265625 70.87011719 C-129.11441406 69.44940918 -129.11441406 69.44940918 -129 68 C-128.7009375 66.45570313 -128.401875 64.91140625 -128.09375 63.3203125 C-127.6915625 61.97710937 -127.289375 60.63390625 -126.875 59.25 C-126.41480469 57.99445313 -125.95460938 56.73890625 -125.48046875 55.4453125 C-124.99191406 54.30835938 -124.50335937 53.17140625 -124 52 C-123.54238281 50.98679687 -123.08476563 49.97359375 -122.61328125 48.9296875 C-122.14277344 48.00414062 -121.67226563 47.07859375 -121.1875 46.125 C-120.6821875 45.26390625 -120.176875 44.4028125 -119.65625 43.515625 C-119.1096875 42.68546875 -118.563125 41.8553125 -118 41 C-117.3915625 40.14921875 -116.783125 39.2984375 -116.15625 38.421875 C-115.18171875 37.16117187 -115.18171875 37.16117187 -114.1875 35.875 C-113.50300781 35.05902344 -112.81851563 34.24304688 -112.11328125 33.40234375 C-111.41589844 32.60957031 -110.71851563 31.81679688 -110 31 C-109.33355469 30.23816406 -108.66710937 29.47632813 -107.98046875 28.69140625 C-107.28566406 27.94761719 -106.59085938 27.20382812 -105.875 26.4375 C-105.12605469 25.70917969 -104.37710938 24.98085938 -103.60546875 24.23046875 C-102.74566406 23.49441406 -101.88585937 22.75835937 -101 22 C-99.92363281 21.21238281 -98.84726562 20.42476563 -97.73828125 19.61328125 C-96.56652344 18.83339844 -95.39476562 18.05351562 -94.1875 17.25 C-92.97835937 16.50878906 -91.76921875 15.76757812 -90.5234375 15.00390625 C-89.36070312 14.34261719 -88.19796875 13.68132812 -87 13 C-86.04351563 12.49339844 -85.08703125 11.98679687 -84.1015625 11.46484375 C-83.18117188 11.04332031 -82.26078125 10.62179687 -81.3125 10.1875 C-80.36246094 9.81496094 -79.41242187 9.44242187 -78.43359375 9.05859375 C-77.30050781 8.70925781 -76.16742187 8.35992187 -75 8 C-74.2280127 7.81066895 -73.45602539 7.62133789 -72.66064453 7.42626953 C-71.39196533 7.13985596 -71.39196533 7.13985596 -70.09765625 6.84765625 C-69.2368042 6.66243408 -68.37595215 6.47721191 -67.48901367 6.28637695 C-66.1950769 6.02087036 -66.1950769 6.02087036 -64.875 5.75 C-64.03235596 5.58653076 -63.18971191 5.42306152 -62.3215332 5.25463867 C-61.53222412 5.10357666 -60.74291504 4.95251465 -59.9296875 4.796875 C-57.98449219 4.40242188 -57.98449219 4.40242188 -56 4 C-55.34 3.67 -54.68 3.34 -54 3 C-52.67097656 2.8246875 -51.34195313 2.649375 -49.97265625 2.46875 C-49.07562988 2.38625 -48.17860352 2.30375 -47.25439453 2.21875 C-45.64346924 2.11046875 -45.64346924 2.11046875 -44 2 C-42.69530762 1.9484375 -41.39061523 1.896875 -40.04638672 1.84375 C-37.8868042 1.781875 -37.8868042 1.781875 -35.68359375 1.71875 C-34.17732422 1.68136719 -32.67105469 1.64398438 -31.11914062 1.60546875 C-29.57419922 1.57066406 -28.02925781 1.53585937 -26.4375 1.5 C-24.88869141 1.46519531 -23.33988281 1.43039062 -21.74414062 1.39453125 C-20.23916016 1.35714844 -18.73417969 1.31976563 -17.18359375 1.28125 C-15.03633789 1.22094604 -15.03633789 1.22094604 -12.84570312 1.15942383 C-11.57662109 1.10681396 -10.30753906 1.0542041 -9 1 C-8.02998047 0.91838623 -7.05996094 0.83677246 -6.06054688 0.75268555 C-5.27615234 0.662854 -4.49175781 0.57302246 -3.68359375 0.48046875 C-2.46800781 0.32191406 -1.25242187 0.16335938 0 0 Z " transform="translate(670,256)" style="fill: #FCFDFB;"/></svg>