<svg id="svg" version="1.1" xmlns="http://www.w3.org/2000/svg" style="display: block;" viewBox="0 0 1024 1024"><path xmlns="http://www.w3.org/2000/svg" d="M0 0 C1.32 0.33 2.64 0.66 4 1 C3.31035156 1.33773438 2.62070312 1.67546875 1.91015625 2.0234375 C0.97042969 2.46945312 0.03070312 2.91546875 -0.9375 3.375 C-1.85402344 3.81585938 -2.77054688 4.25671875 -3.71484375 4.7109375 C-4.79894531 5.13632812 -5.88304687 5.56171875 -7 6 C-8.34449219 6.37640625 -9.68898438 6.7528125 -11.07421875 7.140625 C-11.84483643 7.29901855 -12.6154541 7.45741211 -13.40942383 7.62060547 C-14.26431396 7.74580566 -15.1192041 7.87100586 -16 8 C-16.97155029 8.07234863 -17.94310059 8.14469727 -18.9440918 8.21923828 C-19.99121338 8.25774902 -21.03833496 8.29625977 -22.1171875 8.3359375 C-23.2105542 8.35011719 -24.3039209 8.36429687 -25.43041992 8.37890625 C-27.13548706 8.37697266 -27.13548706 8.37697266 -28.875 8.375 C-30.64290894 8.37693359 -30.64290894 8.37693359 -32.4465332 8.37890625 C-34.2267688 8.35763672 -34.2267688 8.35763672 -36.04296875 8.3359375 C-37.21520996 8.29823242 -38.38745117 8.26052734 -39.59521484 8.22167969 C-40.71879395 8.14852539 -41.84237305 8.07537109 -43 8 C-44.02432129 7.86754883 -45.04864258 7.73509766 -46.10400391 7.59863281 C-47.53172119 7.35258301 -47.53172119 7.35258301 -48.98828125 7.1015625 C-49.87467285 6.92447754 -50.76106445 6.74739258 -51.67431641 6.56494141 C-52.50366699 6.37851074 -53.33301758 6.19208008 -54.1875 6 C-55.70730469 5.62875 -57.22710938 5.2575 -58.79296875 4.875 C-60.38044922 4.441875 -60.38044922 4.441875 -62 4 C-62 3.34 -62 2.68 -62 2 C-60.576875 2.144375 -59.15375 2.28875 -57.6875 2.4375 C-56.140625 2.623125 -54.59375 2.80875 -53 3 C-52.01 3.33 -51.02 3.66 -50 4 C-48.8337207 4.05317383 -47.66744141 4.10634766 -46.46582031 4.16113281 C-45.01788086 4.17499023 -43.56994141 4.18884766 -42.078125 4.203125 C-40.49515625 4.2134375 -38.9121875 4.22375 -37.28125 4.234375 C-36.45496094 4.23630859 -35.62867188 4.23824219 -34.77734375 4.24023438 C-33.52630859 4.24506836 -33.52630859 4.24506836 -32.25 4.25 C-29.78273438 4.2809375 -29.78273438 4.2809375 -27.265625 4.3125 C-25.6775 4.31765625 -24.089375 4.3228125 -22.453125 4.328125 C-21.00067383 4.3374707 -19.54822266 4.34681641 -18.05175781 4.35644531 C-16.71467773 4.23881836 -15.37759766 4.12119141 -14 4 C-12.12006348 3.27055176 -12.12006348 3.27055176 -10.20214844 2.52636719 C-9.14543945 2.02266602 -8.08873047 1.51896484 -7 1 C-5.1746875 0.62875 -5.1746875 0.62875 -3.3125 0.25 C-2.219375 0.1675 -1.12625 0.085 0 0 Z " transform="translate(624,385)" style="fill: #C2DD8D;"/></svg>