<svg id="svg" version="1.1" xmlns="http://www.w3.org/2000/svg" style="display: block;" viewBox="0 0 1024 1024"><path xmlns="http://www.w3.org/2000/svg" d="M0 0 C1.03125 -0.020625 2.0625 -0.04125 3.125 -0.0625 C4.07375 -0.041875 5.0225 -0.02125 6 0 C5.67 1.32 5.34 2.64 5 4 C3.89527344 4.5671875 2.79054688 5.134375 1.65234375 5.71875 C0.91838379 6.00492187 0.18442383 6.29109375 -0.57177734 6.5859375 C-1.39371582 6.88757813 -2.2156543 7.18921875 -3.0625 7.5 C-3.93084473 7.83257812 -4.79918945 8.16515625 -5.69384766 8.5078125 C-6.63405762 8.86617188 -7.57426758 9.22453125 -8.54296875 9.59375 C-9.56310059 9.97402344 -10.58323242 10.35429687 -11.63427734 10.74609375 C-12.74496582 11.15988281 -13.8556543 11.57367188 -15 12 C-16.23057129 12.46535156 -17.46114258 12.93070312 -18.72900391 13.41015625 C-20.68265869 14.15072266 -20.68265869 14.15072266 -22.67578125 14.90625 C-24.01632568 15.41293213 -25.35687012 15.91961426 -26.73803711 16.44165039 C-28.10323486 16.95590576 -29.46843262 17.47016113 -30.875 18 C-32.9334314 18.77041626 -32.9334314 18.77041626 -35.03344727 19.55639648 C-36.39139404 20.06243408 -37.74934082 20.56847168 -39.1484375 21.08984375 C-40.47713867 21.58339355 -41.80583984 22.07694336 -43.17480469 22.58544922 C-44.43711914 23.05225098 -45.69943359 23.51905273 -47 24 C-48.14114258 24.41910645 -49.28228516 24.83821289 -50.45800781 25.27001953 C-52.04500488 25.84985596 -52.04500488 25.84985596 -53.6640625 26.44140625 C-54.66066895 26.80427734 -55.65727539 27.16714844 -56.68408203 27.54101562 C-57.61333496 27.87810547 -58.54258789 28.21519531 -59.5 28.5625 C-60.78753174 29.0275293 -60.78753174 29.0275293 -62.10107422 29.50195312 C-63.30401123 29.93604492 -63.30401123 29.93604492 -64.53125 30.37890625 C-66.74328125 31.18134766 -66.74328125 31.18134766 -69 32 C-70.33289063 32.5053125 -71.66578125 33.010625 -73.0390625 33.53125 C-74.34617187 34.0159375 -75.65328125 34.500625 -77 35 C-78.46179688 35.48339844 -79.92359375 35.96679688 -81.4296875 36.46484375 C-83.63011719 37.19380859 -83.63011719 37.19380859 -85.875 37.9375 C-87.35742188 38.42089844 -88.83984375 38.90429688 -90.3671875 39.40234375 C-91.56601562 39.92957031 -92.76484375 40.45679688 -94 41 C-94.66 42.32 -95.32 43.64 -96 45 C-95.47792969 45.48726563 -94.95585937 45.97453125 -94.41796875 46.4765625 C-93.68191406 47.18554688 -92.94585937 47.89453125 -92.1875 48.625 C-91.36378906 49.45257813 -90.54007812 50.28015625 -89.69140625 51.1328125 C-88.80324219 52.07898438 -87.91507812 53.02515625 -87 54 C-85.68322266 55.54300781 -85.68322266 55.54300781 -84.33984375 57.1171875 C-83.44394531 58.23351562 -82.54804688 59.34984375 -81.625 60.5 C-80.70074219 61.70527344 -79.77648437 62.91054688 -78.82421875 64.15234375 C-77.89222656 65.42207031 -76.96023438 66.69179688 -76 68 C-75.07832031 69.30066406 -74.15664063 70.60132813 -73.20703125 71.94140625 C-72.29308594 73.30136719 -71.37914062 74.66132812 -70.4375 76.0625 C-69.98930908 76.75206787 -69.54111816 77.44163574 -69.0793457 78.15209961 C-68.63292725 78.86503174 -68.18650879 79.57796387 -67.7265625 80.3125 C-67.28086914 81.055 -66.83517578 81.7975 -66.37597656 82.5625 C-65.9219043 83.366875 -65.46783203 84.17125 -65 85 C-64.52014648 85.92554688 -64.04029297 86.85109375 -63.54589844 87.8046875 C-63.06411133 88.77664063 -62.58232422 89.74859375 -62.0859375 90.75 C-61.62002197 91.71542725 -61.15410645 92.68085449 -60.67407227 93.67553711 C-60.22475342 94.62823486 -59.77543457 95.58093262 -59.3125 96.5625 C-58.87800537 97.49779541 -58.44351074 98.43309082 -57.99584961 99.39672852 C-57.60147705 100.25709717 -57.20710449 101.11746582 -56.80078125 102.00390625 C-56.20652344 103.32261719 -55.61226563 104.64132812 -55 106 C-53.01419922 105.83951172 -53.01419922 105.83951172 -50.98828125 105.67578125 C-50.16021973 105.58248535 -49.3321582 105.48918945 -48.47900391 105.39306641 C-47.25189697 105.19849854 -47.25189697 105.19849854 -46 105 C-44.75605469 104.60167969 -43.51210938 104.20335937 -42.23046875 103.79296875 C-40.89628906 103.26316406 -39.56210937 102.73335937 -38.1875 102.1875 C-37.41760742 101.89053223 -36.64771484 101.59356445 -35.85449219 101.28759766 C-34.56333496 100.79912354 -34.56333496 100.79912354 -33.24609375 100.30078125 C-32.29331543 99.94322754 -31.34053711 99.58567383 -30.35888672 99.21728516 C-28.69623779 98.614729 -28.69623779 98.614729 -27 98 C-25.6298877 97.52997559 -24.25977539 97.05995117 -22.84814453 96.57568359 C-21.3423584 96.0698877 -19.83657227 95.5640918 -18.28515625 95.04296875 C-17.50694016 94.7832579 -16.72872406 94.52354706 -15.92692566 94.25596619 C-15.13933365 93.99400955 -14.35174164 93.73205292 -13.5402832 93.4621582 C-12.74675446 93.19907867 -11.95322571 92.93599915 -11.13565063 92.66494751 C-10.34838593 92.40426483 -9.56112122 92.14358215 -8.75 91.875 C-7.2343042 91.37250732 -5.7186084 90.87001465 -4.15698242 90.35229492 C-2.67689697 89.86220947 -1.19681152 89.37212402 0.328125 88.8671875 C2.49858398 88.15320801 2.49858398 88.15320801 4.71289062 87.42480469 C6.12763672 86.95461914 7.54238281 86.48443359 9 86 C10.40958984 85.51176758 11.81917969 85.02353516 13.27148438 84.52050781 C14.59986328 84.06256836 15.92824219 83.60462891 17.296875 83.1328125 C18.47088867 82.7217627 19.64490234 82.31071289 20.85449219 81.88720703 C21.89250977 81.59442871 22.93052734 81.30165039 24 81 C25.65 81 27.3 81 29 81 C29.33 82.32 29.66 83.64 30 85 C29.20182861 85.34828857 28.40365723 85.69657715 27.58129883 86.05541992 C26.44716553 86.54631104 25.31303223 87.03720215 24.14453125 87.54296875 C22.86143066 88.09259277 21.57833008 88.6422168 20.25634766 89.20849609 C18.85175293 89.79969238 17.4471582 90.39088867 16 91 C14.57606934 91.57959473 13.15213867 92.15918945 11.68505859 92.75634766 C10.20473145 93.34851074 8.7244043 93.94067383 7.19921875 94.55078125 C6.43479965 94.85453674 5.67038055 95.15829224 4.88279724 95.47125244 C4.10396683 95.7796405 3.32513641 96.08802856 2.52270508 96.40576172 C1.33688339 96.87366119 1.33688339 96.87366119 0.12710571 97.35101318 C-0.67796417 97.66830383 -1.48303406 97.98559448 -2.3125 98.3125 C-3.13795319 98.63849182 -3.96340637 98.96448364 -4.81387329 99.300354 C-5.64784637 99.62936707 -6.48181946 99.95838013 -7.34106445 100.29736328 C-8.17473038 100.6252887 -9.0083963 100.95321411 -9.86732483 101.29107666 C-11.11249123 101.77927887 -11.11249123 101.77927887 -12.3828125 102.27734375 C-13.61740456 102.75950348 -13.61740456 102.75950348 -14.87693787 103.25140381 C-15.68486282 103.56531067 -16.49278778 103.87921753 -17.32519531 104.20263672 C-18.11301392 104.50691589 -18.90083252 104.81119507 -19.71252441 105.12469482 C-20.46739136 105.41354553 -21.2222583 105.70239624 -22 106 C-23.36737305 106.51191895 -24.73474609 107.02383789 -26.14355469 107.55126953 C-27.39297852 108.01001465 -28.64240234 108.46875977 -29.9296875 108.94140625 C-31.08686279 109.36059326 -32.24403809 109.77978027 -33.4362793 110.21166992 C-34.50918213 110.59556885 -35.58208496 110.97946777 -36.6875 111.375 C-37.70690674 111.73762939 -38.72631348 112.10025879 -39.77661133 112.47387695 C-40.69982178 112.79960693 -41.62303223 113.12533691 -42.57421875 113.4609375 C-44.03472656 113.96882812 -45.49523437 114.47671875 -47 115 C-48.485 115.495 -48.485 115.495 -50 116 C-50.04125 117.4025 -50.0825 118.805 -50.125 120.25 C-50.08375 121.8175 -50.0425 123.385 -50 125 C-49.34 126.32 -48.68 127.64 -48 129 C-47.71898437 130.2478125 -47.43796875 131.495625 -47.1484375 132.78125 C-46.89320313 134.3384375 -46.63796875 135.895625 -46.375 137.5 C-46.24456299 138.35787109 -46.11412598 139.21574219 -45.97973633 140.09960938 C-45.85622803 141.01548828 -45.73271973 141.93136719 -45.60546875 142.875 C-45.49509277 143.84953125 -45.3847168 144.8240625 -45.27099609 145.828125 C-45.13685303 147.39820313 -45.13685303 147.39820313 -45 149 C-44.91806396 150.72476563 -44.91806396 150.72476563 -44.83447266 152.484375 C-44.80272949 153.68578125 -44.77098633 154.8871875 -44.73828125 156.125 C-44.7242627 157.34638672 -44.71024414 158.56777344 -44.69580078 159.82617188 C-44.69306152 161.03853516 -44.69032227 162.25089844 -44.6875 163.5 C-44.68218262 164.65564453 -44.67686523 165.81128906 -44.67138672 167.00195312 C-44.68057129 168.12537109 -44.68975586 169.24878906 -44.69921875 170.40625 C-44.74248291 172.04013672 -44.74248291 172.04013672 -44.78662109 173.70703125 C-44.85703613 174.79371094 -44.92745117 175.88039063 -45 177 C-45.1542041 178.15886719 -45.3084082 179.31773437 -45.46728516 180.51171875 C-45.64952637 181.61128906 -45.83176758 182.71085938 -46.01953125 183.84375 C-46.20233643 184.83568359 -46.3851416 185.82761719 -46.57348633 186.84960938 C-46.7846106 187.91405273 -46.7846106 187.91405273 -47 189 C-45.83082031 188.79761719 -44.66164063 188.59523438 -43.45703125 188.38671875 C-42.63154785 188.20286621 -41.80606445 188.01901367 -40.95556641 187.82958984 C-39.98022949 187.5558252 -39.00489258 187.28206055 -38 187 C-36.30689697 186.37085693 -36.30689697 186.37085693 -34.57958984 185.72900391 C-33.34031738 185.22675293 -32.10104492 184.72450195 -30.82421875 184.20703125 C-29.51098633 183.66240234 -28.19775391 183.11777344 -26.84472656 182.55664062 C-25.4728418 181.98107422 -24.10095703 181.40550781 -22.6875 180.8125 C-21.26791992 180.22533203 -19.84833984 179.63816406 -18.38574219 179.03320312 C-16.9680957 178.45119141 -15.55044922 177.86917969 -14.08984375 177.26953125 C-12.01098877 176.4199585 -12.01098877 176.4199585 -9.89013672 175.55322266 C-8.6063916 175.04065918 -7.32264648 174.5280957 -6 174 C-4.39342529 173.39937744 -4.39342529 173.39937744 -2.75439453 172.78662109 C-1.8054834 172.44840332 -0.85657227 172.11018555 0.12109375 171.76171875 C0.99741455 171.45741943 1.87373535 171.15312012 2.77661133 170.83959961 C3.59282959 170.56253174 4.40904785 170.28546387 5.25 170 C6.78914062 169.47921875 8.32828125 168.9584375 9.9140625 168.421875 C11.26242187 167.95265625 12.61078125 167.4834375 14 167 C15.16273438 166.53078125 16.32546875 166.0615625 17.5234375 165.578125 C18.54695312 165.13984375 19.57046875 164.7015625 20.625 164.25 C21.5428125 163.85425781 22.460625 163.45851563 23.40625 163.05078125 C24.2621875 162.70402344 25.118125 162.35726562 26 162 C27.28390625 161.58814453 27.28390625 161.58814453 28.59375 161.16796875 C29.4290625 160.92691406 30.264375 160.68585938 31.125 160.4375 C32.34123047 160.09138672 32.34123047 160.09138672 33.58203125 159.73828125 C34.37996094 159.49464844 35.17789063 159.25101563 36 159 C36.78761719 158.70480469 37.57523438 158.40960937 38.38671875 158.10546875 C39.18722656 157.78191406 39.98773437 157.45835937 40.8125 157.125 C41.6271875 156.79242187 42.441875 156.45984375 43.28125 156.1171875 C44.1784375 155.74851562 45.075625 155.37984375 46 155 C47.1034375 154.54882812 48.206875 154.09765625 49.34375 153.6328125 C51.06078125 152.94832031 51.06078125 152.94832031 52.8125 152.25 C53.87082031 151.82203125 54.92914062 151.3940625 56.01953125 150.953125 C57.00308594 150.63859375 57.98664063 150.3240625 59 150 C60.65 150 62.3 150 64 150 C64 151.32 64 152.64 64 154 C63.2486377 154.35191406 62.49727539 154.70382812 61.72314453 155.06640625 C60.66208496 155.56011719 59.60102539 156.05382812 58.5078125 156.5625 C57.31446289 157.11292969 56.12111328 157.66335938 54.89160156 158.23046875 C53.60737305 158.81441406 52.32314453 159.39835938 51 160 C49.74928711 160.55300781 48.49857422 161.10601563 47.20996094 161.67578125 C45.9212207 162.23652344 44.63248047 162.79726563 43.3046875 163.375 C41.26825073 164.25357666 41.26825073 164.25357666 39.19067383 165.14990234 C37.76650146 165.76043457 36.3423291 166.3709668 34.875 167 C32.60629028 167.97187256 32.60629028 167.97187256 30.29174805 168.96337891 C29.51630142 169.29429535 28.7408548 169.62521179 27.94190979 169.96615601 C27.15799362 170.29959015 26.37407745 170.63302429 25.56640625 170.9765625 C24.38285805 171.47804306 24.38285805 171.47804306 23.17539978 171.98965454 C22.38420242 172.32339081 21.59300507 172.65712708 20.77783203 173.00097656 C19.9866095 173.33311157 19.19538696 173.66524658 18.38018799 174.00744629 C17.59472595 174.33498901 16.80926392 174.66253174 16 175 C15.22871765 175.31851929 14.4574353 175.63703857 13.66278076 175.96520996 C12.51848602 176.43440857 12.51848602 176.43440857 11.35107422 176.91308594 C9.08707764 177.83395996 9.08707764 177.83395996 6.77734375 178.7734375 C5.2869458 179.37438232 3.79654785 179.97532715 2.26098633 180.59448242 C0.79298584 181.18205322 -0.67501465 181.76962402 -2.1875 182.375 C-3.63680908 182.95290283 -5.08611816 183.53080566 -6.5793457 184.1262207 C-8.70182739 184.96672974 -8.70182739 184.96672974 -10.8671875 185.82421875 C-12.23713867 186.36224121 -13.60708984 186.90026367 -15.01855469 187.45458984 C-16.33243164 187.9645752 -17.64630859 188.47456055 -19 189 C-20.24168945 189.47260254 -21.48337891 189.94520508 -22.76269531 190.43212891 C-24.52371582 191.09414307 -24.52371582 191.09414307 -26.3203125 191.76953125 C-27.42737549 192.18348145 -28.53443848 192.59743164 -29.67504883 193.02392578 C-30.71040771 193.40790527 -31.7457666 193.79188477 -32.8125 194.1875 C-33.77244873 194.53796387 -34.73239746 194.88842773 -35.72143555 195.24951172 C-36.60355713 195.57322754 -37.48567871 195.89694336 -38.39453125 196.23046875 C-39.91433594 196.81441406 -41.43414062 197.39835938 -43 198 C-44.10085938 198.34933594 -45.20171875 198.69867187 -46.3359375 199.05859375 C-47.21507812 199.69925781 -48.09421875 200.33992187 -49 201 C-49.4117749 201.71921631 -49.8235498 202.43843262 -50.24780273 203.17944336 C-50.84637085 204.50987671 -50.84637085 204.50987671 -51.45703125 205.8671875 C-51.8422998 206.82906982 -52.22756836 207.79095215 -52.62451172 208.78198242 C-53.01654785 209.80267822 -53.40858398 210.82337402 -53.8125 211.875 C-54.24062988 212.91696533 -54.66875977 213.95893066 -55.10986328 215.0324707 C-55.54669434 216.06718506 -55.98352539 217.10189941 -56.43359375 218.16796875 C-57.08110596 219.68269775 -57.08110596 219.68269775 -57.74169922 221.22802734 C-58.15693848 222.14277832 -58.57217773 223.0575293 -59 224 C-60.10021484 225.97419922 -60.10021484 225.97419922 -61.22265625 227.98828125 C-61.93292969 229.04402344 -62.64320313 230.09976563 -63.375 231.1875 C-64.10976563 232.16460938 -64.84453125 233.14171875 -65.6015625 234.1484375 C-66.39304687 235.08945312 -67.18453125 236.03046875 -68 237 C-68.91523438 238.04414062 -69.83046875 239.08828125 -70.7734375 240.1640625 C-71.75570312 241.20304688 -72.73796875 242.24203125 -73.75 243.3125 C-75.27753906 244.77816406 -75.27753906 244.77816406 -76.8359375 246.2734375 C-77.88007813 247.17320312 -78.92421875 248.07296875 -80 249 C-81.04414063 249.77601563 -82.08828125 250.55203125 -83.1640625 251.3515625 C-84.22367187 252.03992188 -85.28328125 252.72828125 -86.375 253.4375 C-87.44492187 254.05496094 -88.51484375 254.67242188 -89.6171875 255.30859375 C-91.29167969 256.14583984 -91.29167969 256.14583984 -93 257 C-94.24007812 257.52722656 -95.48015625 258.05445313 -96.7578125 258.59765625 C-97.99273437 259.06042969 -99.22765625 259.52320313 -100.5 260 C-101.6240625 260.391875 -102.748125 260.78375 -103.90625 261.1875 C-104.9271875 261.455625 -105.948125 261.72375 -107 262 C-108.65 262 -110.3 262 -112 262 C-112.66 261.34 -113.32 260.68 -114 260 C-113.67 258.68 -113.34 257.36 -113 256 C-112.01257813 255.44699219 -111.02515625 254.89398437 -110.0078125 254.32421875 C-108.72648437 253.78410156 -107.44515625 253.24398437 -106.125 252.6875 C-104.76375 252.0790625 -103.4025 251.470625 -102 250.84375 C-100.68 250.2353125 -99.36 249.626875 -98 249 C-96.453125 248.18015625 -96.453125 248.18015625 -94.875 247.34375 C-93.51375 246.52390625 -93.51375 246.52390625 -92.125 245.6875 C-91.25488281 245.10613281 -90.38476562 244.52476562 -89.48828125 243.92578125 C-88.66714844 243.29027344 -87.84601563 242.65476562 -87 242 C-86.20980469 241.27167969 -85.41960937 240.54335938 -84.60546875 239.79296875 C-83.84878906 238.99503906 -83.09210938 238.19710937 -82.3125 237.375 C-81.58804688 236.51648438 -80.86359375 235.65796875 -80.1171875 234.7734375 C-79.41851562 233.85820313 -78.71984375 232.94296875 -78 232 C-77.32195312 231.04351563 -76.64390625 230.08703125 -75.9453125 229.1015625 C-75.28273438 228.07804688 -74.62015625 227.05453125 -73.9375 226 C-73.29167969 224.90171875 -72.64585937 223.8034375 -71.98046875 222.671875 C-71.32691406 221.46015625 -70.67335938 220.2484375 -70 219 C-69.29488281 217.60265625 -68.58976562 216.2053125 -67.86328125 214.765625 C-67.16589844 213.27546875 -66.46851563 211.7853125 -65.75 210.25 C-65.41468262 209.49420654 -65.07936523 208.73841309 -64.73388672 207.9597168 C-64.41307129 207.19828369 -64.09225586 206.43685059 -63.76171875 205.65234375 C-63.18035156 204.11707031 -62.59898437 202.58179688 -62 201 C-61.55269531 199.45441406 -61.10539062 197.90882813 -60.64453125 196.31640625 C-60.28746094 194.83011719 -59.93039062 193.34382812 -59.5625 191.8125 C-59.27503906 190.47832031 -58.98757813 189.14414062 -58.69140625 187.76953125 C-58.46324219 186.52558594 -58.23507812 185.28164063 -58 184 C-57.80792969 182.94554687 -57.61585938 181.89109375 -57.41796875 180.8046875 C-57.28003906 179.54914063 -57.14210938 178.29359375 -57 177 C-56.93824585 175.63572876 -56.93824585 175.63572876 -56.87524414 174.24389648 C-56.83645142 172.69424194 -56.83645142 172.69424194 -56.796875 171.11328125 C-56.78422607 170.01999512 -56.77157715 168.92670898 -56.75854492 167.80029297 C-56.7557251 166.64932129 -56.75290527 165.49834961 -56.75 164.3125 C-56.75040283 163.11512207 -56.75080566 161.91774414 -56.7512207 160.68408203 C-56.7680188 158.87399658 -56.7680188 158.87399658 -56.78515625 157.02734375 C-56.81109863 155.83351074 -56.83704102 154.63967773 -56.86376953 153.40966797 C-56.90872559 152.28447754 -56.95368164 151.15928711 -57 150 C-57.07202637 149.03078613 -57.14405273 148.06157227 -57.21826172 147.06298828 C-57.30994629 146.17724121 -57.40163086 145.29149414 -57.49609375 144.37890625 C-57.65658203 143.11506104 -57.65658203 143.11506104 -57.8203125 141.82568359 C-58.00207031 140.61259521 -58.00207031 140.61259521 -58.1875 139.375 C-58.46464844 137.79074219 -58.74179687 136.20648437 -59.02734375 134.57421875 C-59.34832031 133.06472656 -59.66929687 131.55523438 -60 130 C-60.35191406 128.52144531 -60.70382812 127.04289063 -61.06640625 125.51953125 C-61.45699219 124.08996094 -61.84757812 122.66039062 -62.25 121.1875 C-62.89775391 119.12435547 -62.89775391 119.12435547 -63.55859375 117.01953125 C-64.03425781 115.69308594 -64.50992188 114.36664062 -65 113 C-65.52722656 111.72511719 -66.05445313 110.45023438 -66.59765625 109.13671875 C-67.16355469 107.89535156 -67.72945313 106.65398437 -68.3125 105.375 C-68.910625 104.15683594 -69.50875 102.93867187 -70.125 101.68359375 C-70.74375 100.46800781 -71.3625 99.25242187 -72 98 C-72.61875 96.75347656 -73.2375 95.50695312 -73.875 94.22265625 C-74.514375 92.97355469 -75.15375 91.72445312 -75.8125 90.4375 C-76.48023438 89.20515625 -77.14796875 87.9728125 -77.8359375 86.703125 C-78.90714844 84.87007812 -78.90714844 84.87007812 -80 83 C-80.79664063 81.77796875 -81.59328125 80.5559375 -82.4140625 79.296875 C-83.24679687 78.10578125 -84.07953125 76.9146875 -84.9375 75.6875 C-85.77539062 74.54667969 -86.61328125 73.40585937 -87.4765625 72.23046875 C-88.30929687 71.16441406 -89.14203125 70.09835937 -90 69 C-90.81210937 68.04738281 -91.62421875 67.09476562 -92.4609375 66.11328125 C-93.62496094 64.81970703 -93.62496094 64.81970703 -94.8125 63.5 C-95.54984375 62.70980469 -96.2871875 61.91960937 -97.046875 61.10546875 C-97.69140625 60.41066406 -98.3359375 59.71585937 -99 59 C-99.845625 57.948125 -100.69125 56.89625 -101.5625 55.8125 C-102.7690625 54.4203125 -102.7690625 54.4203125 -104 53 C-105.175625 51.906875 -106.35125 50.81375 -107.5625 49.6875 C-108.25472656 49.10226562 -108.94695312 48.51703125 -109.66015625 47.9140625 C-110.43230469 47.28242188 -111.20445312 46.65078125 -112 46 C-112.86496094 45.28585937 -113.72992188 44.57171875 -114.62109375 43.8359375 C-116.04615234 42.71058594 -116.04615234 42.71058594 -117.5 41.5625 C-118.51835937 40.80710937 -119.53671875 40.05171875 -120.5859375 39.2734375 C-121.71257812 38.52320313 -122.83921875 37.77296875 -124 37 C-125.31226563 36.27039063 -126.62453125 35.54078125 -127.9765625 34.7890625 C-129.34554687 34.09554687 -130.71453125 33.40203125 -132.125 32.6875 C-133.48238281 32.0378125 -134.83976562 31.388125 -136.23828125 30.71875 C-137.47964844 30.1515625 -138.72101563 29.584375 -140 29 C-141.41345703 28.36578125 -141.41345703 28.36578125 -142.85546875 27.71875 C-144.07169922 27.20828125 -144.07169922 27.20828125 -145.3125 26.6875 C-146.859375 26.130625 -148.40625 25.57375 -150 25 C-150.98355469 24.72542969 -151.96710938 24.45085937 -152.98046875 24.16796875 C-153.97691406 23.90628906 -154.97335937 23.64460938 -156 23.375 C-156.9075 23.15585937 -157.815 22.93671875 -158.75 22.7109375 C-159.4925 22.47632813 -160.235 22.24171875 -161 22 C-161.66 21.34 -162.32 20.68 -163 20 C-162.67 18.68 -162.34 17.36 -162 16 C-161.67 15.67 -161.34 15.34 -161 15 C-160.18015625 14.92136719 -159.3603125 14.84273438 -158.515625 14.76171875 C-156.89914062 14.72498047 -156.89914062 14.72498047 -155.25 14.6875 C-154.06535156 14.70167969 -152.88070313 14.71585937 -151.66015625 14.73046875 C-149.84837891 14.86388672 -149.84837891 14.86388672 -148 15 C-146.94683594 15.20238281 -145.89367187 15.40476562 -144.80859375 15.61328125 C-143.77863281 15.90589844 -142.74867188 16.19851563 -141.6875 16.5 C-140.62144531 16.86480469 -139.55539062 17.22960937 -138.45703125 17.60546875 C-137.31621094 18.06566406 -136.17539062 18.52585937 -135 19 C-133.68386719 19.59425781 -132.36773437 20.18851562 -131.01171875 20.80078125 C-129.64660156 21.46464844 -128.28148437 22.12851562 -126.875 22.8125 C-125.53308594 23.49957031 -124.19117188 24.18664062 -122.80859375 24.89453125 C-121.55175781 25.58933594 -120.29492188 26.28414063 -119 27 C-117.93910156 27.68449219 -116.87820313 28.36898438 -115.78515625 29.07421875 C-114.84542969 29.70972656 -113.90570313 30.34523438 -112.9375 31 C-112.07125 31.56332031 -111.205 32.12664062 -110.3125 32.70703125 C-109.549375 33.13371094 -108.78625 33.56039062 -108 34 C-106.824375 34.226875 -105.64875 34.45375 -104.4375 34.6875 C-102.7359375 34.3471875 -102.7359375 34.3471875 -101 34 C-100.24203125 33.731875 -99.4840625 33.46375 -98.703125 33.1875 C-97.45789063 32.6925 -97.45789063 32.6925 -96.1875 32.1875 C-95.33542969 31.82011719 -94.48335938 31.45273437 -93.60546875 31.07421875 C-92.31576172 30.54248047 -92.31576172 30.54248047 -91 30 C-90.17113281 29.73832031 -89.34226562 29.47664063 -88.48828125 29.20703125 C-87.66714844 28.97371094 -86.84601563 28.74039062 -86 28.5 C-85.21230225 28.27401123 -84.42460449 28.04802246 -83.61303711 27.81518555 C-82.75073486 27.54617432 -81.88843262 27.27716309 -81 27 C-79.58203125 26.4225 -78.1640625 25.845 -76.703125 25.25 C-75.39698242 24.72116211 -75.39698242 24.72116211 -74.06445312 24.18164062 C-73.05318359 23.79169922 -72.04191406 23.40175781 -71 23 C-69.78763672 22.57396484 -68.57527344 22.14792969 -67.32617188 21.70898438 C-65.99650391 21.25845703 -64.66683594 20.80792969 -63.296875 20.34375 C-61.90339844 19.87839844 -60.50992188 19.41304688 -59.07421875 18.93359375 C-57.64722656 18.46050781 -56.22023438 17.98742187 -54.75 17.5 C-53.33847656 17.02691406 -51.92695313 16.55382812 -50.47265625 16.06640625 C-49.07402344 15.60105469 -47.67539062 15.13570313 -46.234375 14.65625 C-44.85725342 14.20499756 -43.48013184 13.75374512 -42.0612793 13.28881836 C-40.72105713 12.8635083 -39.38083496 12.43819824 -38 12 C-36.05637573 11.42487671 -36.05637573 11.42487671 -34.07348633 10.83813477 C-32.24466919 10.3169104 -32.24466919 10.3169104 -30.37890625 9.78515625 C-29.30970947 9.48746338 -28.2405127 9.18977051 -27.13891602 8.88305664 C-26.10307373 8.59164795 -25.06723145 8.30023926 -24 8 C-22.81027588 7.64333252 -21.62055176 7.28666504 -20.39477539 6.91918945 C-19.33637451 6.59523193 -18.27797363 6.27127441 -17.1875 5.9375 C-16.13304687 5.61007812 -15.07859375 5.28265625 -13.9921875 4.9453125 C-12.51105469 4.47738281 -12.51105469 4.47738281 -11 4 C-10.09507812 3.70867187 -9.19015625 3.41734375 -8.2578125 3.1171875 C-7.04738281 2.71886719 -7.04738281 2.71886719 -5.8125 2.3125 C-3.9253125 1.6628125 -3.9253125 1.6628125 -2 1 C-1.34 0.67 -0.68 0.34 0 0 Z " transform="translate(481,440)" style="fill: #72B22D;"/></svg>