<svg id="svg" version="1.1" xmlns="http://www.w3.org/2000/svg" style="display: block;" viewBox="0 0 1024 1024"><path xmlns="http://www.w3.org/2000/svg" d="M0 0 C2.413125 -0.0928125 2.413125 -0.0928125 4.875 -0.1875 C6.916875 -0.0946875 6.916875 -0.0946875 9 0 C9.99 0.495 9.99 0.495 11 1 C11 2.32 11 3.64 11 5 C10.113125 5.4125 9.22625 5.825 8.3125 6.25 C6.1778125 7.11625 6.1778125 7.11625 4 8 C3.06542969 8.26683594 2.13085938 8.53367187 1.16796875 8.80859375 C0.12253906 9.09863281 -0.92289062 9.38867188 -2 9.6875 C-3.12277344 10.03039062 -4.24554688 10.37328125 -5.40234375 10.7265625 C-7.18318359 11.35691406 -7.18318359 11.35691406 -9 12 C-10.23878906 12.54398437 -11.47757812 13.08796875 -12.75390625 13.6484375 C-14.01074219 14.28007812 -15.26757812 14.91171875 -16.5625 15.5625 C-18.43615234 16.60083984 -18.43615234 16.60083984 -20.34765625 17.66015625 C-21.55292969 18.43230469 -22.75820313 19.20445312 -24 20 C-25.11246094 20.88558594 -26.22492188 21.77117187 -27.37109375 22.68359375 C-28.40363281 23.61300781 -29.43617188 24.54242188 -30.5 25.5 C-31.46550781 26.44488281 -32.43101562 27.38976562 -33.42578125 28.36328125 C-34.27527344 29.23339844 -35.12476563 30.10351562 -36 31 C-36.65355469 31.63292969 -37.30710938 32.26585937 -37.98046875 32.91796875 C-38.54378906 33.50191406 -39.10710937 34.08585937 -39.6875 34.6875 C-40.21472656 35.31527344 -40.74195313 35.94304687 -41.28515625 36.58984375 C-41.85105469 37.38519531 -42.41695312 38.18054688 -43 39 C-44.11181641 40.79630859 -44.11181641 40.79630859 -45.24609375 42.62890625 C-46.03113281 43.98886719 -46.81617188 45.34882813 -47.625 46.75 C-48.76195312 48.84021484 -48.76195312 48.84021484 -49.921875 50.97265625 C-50.60765625 52.30167969 -51.2934375 53.63070312 -52 55 C-52.52078125 56.07121094 -53.0415625 57.14242187 -53.578125 58.24609375 C-54.00609375 59.21675781 -54.4340625 60.18742188 -54.875 61.1875 C-55.24882812 62.13496094 -55.62265625 63.08242188 -56.0078125 64.05859375 C-56.33523437 65.02925781 -56.66265625 65.99992188 -57 67 C-57.30679688 68.10472656 -57.61359375 69.20945312 -57.9296875 70.34765625 C-58.20039063 71.47042969 -58.47109375 72.59320312 -58.75 73.75 C-58.97171875 74.75546875 -59.1934375 75.7609375 -59.421875 76.796875 C-59.61265625 77.85390625 -59.8034375 78.9109375 -60 80 C-60.18433594 81.20914063 -60.36867187 82.41828125 -60.55859375 83.6640625 C-60.70425781 85.09492187 -60.84992188 86.52578125 -61 88 C-61.04688965 88.86625 -61.0937793 89.7325 -61.14208984 90.625 C-61.17383301 91.56601562 -61.20557617 92.50703125 -61.23828125 93.4765625 C-61.25624756 94.4655957 -61.27421387 95.45462891 -61.29272461 96.47363281 C-61.29925049 97.51358398 -61.30577637 98.55353516 -61.3125 99.625 C-61.31358765 101.27000488 -61.31358765 101.27000488 -61.31469727 102.94824219 C-61.30108154 104.06618164 -61.28746582 105.18412109 -61.2734375 106.3359375 C-61.24088867 107.45452148 -61.20833984 108.57310547 -61.17480469 109.72558594 C-61.08827637 111.3464209 -61.08827637 111.3464209 -61 113 C-60.9062207 113.98000977 -60.81244141 114.96001953 -60.71582031 115.96972656 C-60.59561523 116.90010742 -60.47541016 117.83048828 -60.3515625 118.7890625 C-60.21032959 119.69817383 -60.06909668 120.60728516 -59.92358398 121.54394531 C-59.76317627 122.43694336 -59.60276855 123.32994141 -59.4375 124.25 C-59.26226807 125.14299805 -59.08703613 126.03599609 -58.90649414 126.95605469 C-58.71434326 127.84454102 -58.52219238 128.73302734 -58.32421875 129.6484375 C-58.11458496 130.52983398 -57.90495117 131.41123047 -57.68896484 132.31933594 C-57.34792725 133.64626465 -57.34792725 133.64626465 -57 135 C-56.75330566 135.90266602 -56.50661133 136.80533203 -56.25244141 137.73535156 C-55.98995605 138.63995117 -55.7274707 139.54455078 -55.45703125 140.4765625 C-55.18125244 141.37294434 -54.90547363 142.26932617 -54.62133789 143.19287109 C-54.33379639 144.07797363 -54.04625488 144.96307617 -53.75 145.875 C-53.45279053 146.74334473 -53.15558105 147.61168945 -52.84936523 148.50634766 C-52.54329346 149.35503418 -52.23722168 150.2037207 -51.921875 151.078125 C-51.60798828 151.90505859 -51.29410156 152.73199219 -50.97070312 153.58398438 C-50.65037109 154.38126953 -50.33003906 155.17855469 -50 156 C-49.34515625 157.47984375 -48.6903125 158.9596875 -48.015625 160.484375 C-47.35046875 161.85078125 -46.6853125 163.2171875 -46 164.625 C-45.32582031 165.90246094 -44.65164062 167.17992187 -43.95703125 168.49609375 C-43.31121094 169.65238281 -42.66539062 170.80867187 -42 172 C-41.44699219 172.98097656 -40.89398438 173.96195313 -40.32421875 174.97265625 C-39.78410156 175.86855469 -39.24398437 176.76445313 -38.6875 177.6875 C-38.11644531 178.54730469 -37.54539063 179.40710938 -36.95703125 180.29296875 C-36.31121094 181.18628906 -35.66539062 182.07960938 -35 183 C-33.79923828 184.57201172 -33.79923828 184.57201172 -32.57421875 186.17578125 C-31.23810547 187.82126953 -31.23810547 187.82126953 -29.875 189.5 C-28.93011719 190.58667969 -27.98523438 191.67335938 -27.01171875 192.79296875 C-26.01785156 193.85128906 -25.02398437 194.90960937 -24 196 C-22.97519531 196.98613281 -21.95039063 197.97226562 -20.89453125 198.98828125 C-19.83621094 199.92027344 -18.77789062 200.85226562 -17.6875 201.8125 C-16.59953125 202.69808594 -15.5115625 203.58367187 -14.390625 204.49609375 C-13.27171875 205.32238281 -12.1528125 206.14867187 -11 207 C-9.83984375 207.75410156 -8.6796875 208.50820313 -7.484375 209.28515625 C-6.31390625 209.97480469 -5.1434375 210.66445313 -3.9375 211.375 C-2.20306641 212.31666016 -2.20306641 212.31666016 -0.43359375 213.27734375 C0.69949219 213.84582031 1.83257812 214.41429687 3 215 C4.65322266 215.77537109 4.65322266 215.77537109 6.33984375 216.56640625 C7.90412109 217.24509766 7.90412109 217.24509766 9.5 217.9375 C10.4178125 218.31777344 11.335625 218.69804688 12.28125 219.08984375 C13.1784375 219.39019531 14.075625 219.69054687 15 220 C15.87140625 220.20238281 16.7428125 220.40476562 17.640625 220.61328125 C18.74921875 220.74089844 19.8578125 220.86851562 21 221 C21.8146875 221.0405249 22.629375 221.0810498 23.46875 221.12280273 C24.39171875 221.14930908 25.3146875 221.17581543 26.265625 221.203125 C27.23886719 221.2134375 28.21210938 221.22375 29.21484375 221.234375 C30.21644531 221.23953125 31.21804688 221.2446875 32.25 221.25 C33.23613281 221.270625 34.22226562 221.29125 35.23828125 221.3125 C36.21667969 221.31765625 37.19507813 221.3228125 38.203125 221.328125 C39.17491699 221.30169922 40.14670898 221.27527344 41.14794922 221.24804688 C42.08912598 221.16619141 43.03030273 221.08433594 44 221 C44.88059082 220.82017578 45.76118164 220.64035156 46.66845703 220.45507812 C47.50747559 220.21724609 48.34649414 219.97941406 49.2109375 219.734375 C50.01917969 219.46206055 50.82742188 219.18974609 51.66015625 218.90917969 C52.43230469 218.60915039 53.20445312 218.30912109 54 218 C55.43085938 217.360625 56.86171875 216.72125 58.3359375 216.0625 C59.66882813 215.381875 61.00171875 214.70125 62.375 214 C63.72335937 213.319375 65.07171875 212.63875 66.4609375 211.9375 C67.62882813 211.298125 68.79671875 210.65875 70 210 C71.32 209.01 72.64 208.02 74 207 C74.66 207 75.32 207 76 207 C76 207.99 76 208.98 76 210 C75.12859375 210.76054688 74.2571875 211.52109375 73.359375 212.3046875 C72.16828125 213.15289063 70.9771875 214.00109375 69.75 214.875 C68.46867188 215.75929688 67.18734375 216.64359375 65.8671875 217.5546875 C64.59101563 218.36164063 63.31484375 219.16859375 62 220 C60.95070313 220.55945313 59.90140625 221.11890625 58.8203125 221.6953125 C57.84835937 222.12585938 56.87640625 222.55640625 55.875 223 C54.40160156 223.54720703 54.40160156 223.54720703 52.8984375 224.10546875 C51.46371094 224.54826172 51.46371094 224.54826172 50 225 C49.10539062 225.24363281 48.21078125 225.48726562 47.2890625 225.73828125 C46.36867188 225.92777344 45.44828125 226.11726562 44.5 226.3125 C43.51644531 226.44527344 42.53289062 226.57804688 41.51953125 226.71484375 C40.35808594 226.80894531 39.19664062 226.90304687 38 227 C36.45699219 227.08378906 34.91398437 227.16757812 33.32421875 227.25390625 C32.0697998 227.29390747 32.0697998 227.29390747 30.79003906 227.3347168 C29.93120117 227.34801025 29.07236328 227.36130371 28.1875 227.375 C27.3222168 227.37218018 26.45693359 227.36936035 25.56542969 227.36645508 C24.70723633 227.34607178 23.84904297 227.32568848 22.96484375 227.3046875 C21.32644531 227.20414063 19.68804687 227.10359375 18 227 C15.99099609 226.69449219 15.99099609 226.69449219 13.94140625 226.3828125 C12.72324219 226.09148437 11.50507813 225.80015625 10.25 225.5 C9.06535156 225.13519531 7.88070312 224.77039063 6.66015625 224.39453125 C5.45230469 223.93433594 4.24445313 223.47414063 3 223 C1.63746094 222.40574219 0.27492188 221.81148437 -1.12890625 221.19921875 C-2.50949219 220.53535156 -3.89007813 219.87148438 -5.3125 219.1875 C-7.30603516 218.13949219 -7.30603516 218.13949219 -9.33984375 217.0703125 C-10.54769531 216.38710938 -11.75554687 215.70390625 -13 215 C-13.95003906 214.41992188 -14.90007812 213.83984375 -15.87890625 213.2421875 C-17.11447266 212.41074219 -17.11447266 212.41074219 -18.375 211.5625 C-19.14328125 210.99402344 -19.9115625 210.42554688 -20.703125 209.83984375 C-21.46109375 209.23269531 -22.2190625 208.62554688 -23 208 C-23.84046875 207.30003906 -24.6809375 206.60007812 -25.546875 205.87890625 C-26.39765625 205.13511719 -27.2484375 204.39132812 -28.125 203.625 C-28.95257813 202.85671875 -29.78015625 202.0884375 -30.6328125 201.296875 C-31.80457031 200.15992188 -31.80457031 200.15992188 -33 199 C-33.67804688 198.32453125 -34.35609375 197.6490625 -35.0546875 196.953125 C-35.69664062 196.26734375 -36.33859375 195.5815625 -37 194.875 C-37.639375 194.13121094 -38.27875 193.38742187 -38.9375 192.62109375 C-39.9584375 191.32365234 -39.9584375 191.32365234 -41 190 C-42.2065625 188.34677734 -42.2065625 188.34677734 -43.4375 186.66015625 C-44.283125 185.43167969 -45.12875 184.20320312 -46 182.9375 C-47.26070312 181.00197266 -47.26070312 181.00197266 -48.546875 179.02734375 C-49.35640625 177.69832031 -50.1659375 176.36929688 -51 175 C-51.72703125 173.68128906 -52.4540625 172.36257813 -53.203125 171.00390625 C-53.87859375 169.68261719 -54.5540625 168.36132812 -55.25 167 C-55.88808594 165.67613281 -56.52617187 164.35226562 -57.18359375 162.98828125 C-57.78300781 161.67214844 -58.38242188 160.35601563 -59 159 C-59.56847656 157.69417969 -60.13695312 156.38835937 -60.72265625 155.04296875 C-61.24730469 153.77066406 -61.77195313 152.49835938 -62.3125 151.1875 C-62.78945312 149.94484375 -63.26640625 148.7021875 -63.7578125 147.421875 C-64.37269531 145.72804688 -64.37269531 145.72804688 -65 144 C-65.30679688 143.13890625 -65.61359375 142.2778125 -65.9296875 141.390625 C-66.17976562 140.58109375 -66.42984375 139.7715625 -66.6875 138.9375 C-66.9040625 138.06996094 -67.120625 137.20242188 -67.34375 136.30859375 C-67.5603125 135.21675781 -67.776875 134.12492188 -68 133 C-68.41765625 130.57333984 -68.41765625 130.57333984 -68.84375 128.09765625 C-68.98506348 127.19225098 -69.12637695 126.2868457 -69.27197266 125.35400391 C-69.40909668 124.41218262 -69.5462207 123.47036133 -69.6875 122.5 C-69.81560059 121.54786621 -69.94370117 120.59573242 -70.07568359 119.61474609 C-70.19250488 118.65777832 -70.30932617 117.70081055 -70.4296875 116.71484375 C-70.5337793 115.75819824 -70.63787109 114.80155273 -70.74511719 113.81591797 C-70.82922852 112.88666504 -70.91333984 111.95741211 -71 111 C-71.05317383 110.13648926 -71.10634766 109.27297852 -71.16113281 108.38330078 C-71.19303711 107.55685059 -71.22494141 106.73040039 -71.2578125 105.87890625 C-71.27585938 104.28949219 -71.29390625 102.70007813 -71.3125 101.0625 C-71.28285156 99.52078125 -71.25320312 97.9790625 -71.22265625 96.390625 C-71.14917969 94.94171875 -71.07570312 93.4928125 -71 92 C-70.89558594 90.69546875 -70.79117188 89.3909375 -70.68359375 88.046875 C-70.54050781 86.81453125 -70.39742187 85.5821875 -70.25 84.3125 C-70.06566406 83.11625 -69.88132813 81.92 -69.69140625 80.6875 C-69.46324219 79.470625 -69.23507813 78.25375 -69 77 C-68.72027344 75.659375 -68.44054687 74.31875 -68.15234375 72.9375 C-67.67474609 70.895625 -67.67474609 70.895625 -67.1875 68.8125 C-66.836875 67.4821875 -66.48625 66.151875 -66.125 64.78125 C-65.75375 63.5334375 -65.3825 62.285625 -65 61 C-64.62875 59.9378125 -64.2575 58.875625 -63.875 57.78125 C-63.483125 56.8015625 -63.09125 55.821875 -62.6875 54.8125 C-62.26339844 53.86117187 -61.83929688 52.90984375 -61.40234375 51.9296875 C-60.93957031 50.96289062 -60.47679687 49.99609375 -60 49 C-59.22849609 47.39511719 -59.22849609 47.39511719 -58.44140625 45.7578125 C-57.88324219 44.66210938 -57.32507813 43.56640625 -56.75 42.4375 C-56.151875 41.35726562 -55.55375 40.27703125 -54.9375 39.1640625 C-54.298125 38.11992187 -53.65875 37.07578125 -53 36 C-52.319375 35.03835938 -51.63875 34.07671875 -50.9375 33.0859375 C-50.215625 32.17070312 -49.49375 31.25546875 -48.75 30.3125 C-47.986875 29.425625 -47.22375 28.53875 -46.4375 27.625 C-45.633125 26.75875 -44.82875 25.8925 -44 25 C-43.154375 24.13375 -42.30875 23.2675 -41.4375 22.375 C-40.550625 21.529375 -39.66375 20.68375 -38.75 19.8125 C-37.82574219 19.00039063 -36.90148437 18.18828125 -35.94921875 17.3515625 C-34.48935547 16.18753906 -34.48935547 16.18753906 -33 15 C-31.95457031 14.26523437 -30.90914063 13.53046875 -29.83203125 12.7734375 C-28.75308594 12.08507812 -27.67414063 11.39671875 -26.5625 10.6875 C-25.47710937 10.04941406 -24.39171875 9.41132813 -23.2734375 8.75390625 C-22.19320312 8.17511719 -21.11296875 7.59632813 -20 7 C-18.94039063 6.49339844 -17.88078125 5.98679687 -16.7890625 5.46484375 C-15.76554687 5.02269531 -14.74203125 4.58054687 -13.6875 4.125 C-12.70523438 3.74214844 -11.72296875 3.35929687 -10.7109375 2.96484375 C-9.36902344 2.48724609 -9.36902344 2.48724609 -8 2 C-6.618125 1.566875 -5.23625 1.13375 -3.8125 0.6875 C-2.554375 0.460625 -1.29625 0.23375 0 0 Z " transform="translate(293,456)" style="fill: #72B231;"/></svg>