<svg id="svg" version="1.1" xmlns="http://www.w3.org/2000/svg" style="display: block;" viewBox="0 0 1024 1024"><path xmlns="http://www.w3.org/2000/svg" d="M0 0 C0.969375 0.103125 1.93875 0.20625 2.9375 0.3125 C3.618125 0.539375 4.29875 0.76625 5 1 C4.67 2.32 4.34 3.64 4 5 C2.91203125 5.54140625 1.8240625 6.0828125 0.703125 6.640625 C-0.76640625 7.17171875 -2.2359375 7.7028125 -3.75 8.25 C-4.5455127 8.54374512 -5.34102539 8.83749023 -6.16064453 9.14013672 C-6.99192871 9.44709473 -7.82321289 9.75405273 -8.6796875 10.0703125 C-9.5469043 10.38387695 -10.41412109 10.69744141 -11.30761719 11.02050781 C-12.19610352 11.34374023 -13.08458984 11.66697266 -14 12 C-14.8962207 12.33612305 -15.79244141 12.67224609 -16.71582031 13.01855469 C-17.61655273 13.36047852 -18.51728516 13.70240234 -19.4453125 14.0546875 C-20.34314453 14.39677246 -21.24097656 14.73885742 -22.16601562 15.09130859 C-23.05998047 15.43242676 -23.95394531 15.77354492 -24.875 16.125 C-25.77154297 16.4648291 -26.66808594 16.8046582 -27.59179688 17.15478516 C-28.46126953 17.48526855 -29.33074219 17.81575195 -30.2265625 18.15625 C-31.05446289 18.47335937 -31.88236328 18.79046875 -32.73535156 19.1171875 C-33.48268555 19.40851563 -34.23001953 19.69984375 -35 20 C-36.12148438 20.4640625 -37.24296875 20.928125 -38.3984375 21.40625 C-39.33945312 21.8084375 -40.28046875 22.210625 -41.25 22.625 C-42.52593018 23.1670105 -42.52593018 23.1670105 -43.82763672 23.7199707 C-44.8745166 24.14238037 -45.92139648 24.56479004 -47 25 C-48.18045898 25.42627686 -49.36091797 25.85255371 -50.57714844 26.29174805 C-51.9077832 26.75621338 -53.23841797 27.22067871 -54.609375 27.69921875 C-56.1159668 28.22773438 -57.62255859 28.75625 -59.17480469 29.30078125 C-59.96640991 29.57881592 -60.75801514 29.85685059 -61.5736084 30.14331055 C-62.37431763 30.42601807 -63.17502686 30.70872559 -64 31 C-64.78814087 31.28157959 -65.57628174 31.56315918 -66.38830566 31.85327148 C-67.17958862 32.13759033 -67.97087158 32.42190918 -68.78613281 32.71484375 C-69.5890123 33.00391602 -70.39189178 33.29298828 -71.21910095 33.59082031 C-72.44095848 34.03119629 -72.44095848 34.03119629 -73.6875 34.48046875 C-74.51693619 34.77904785 -75.34637238 35.07762695 -76.20094299 35.38525391 C-77.04446823 35.68866699 -77.88799347 35.99208008 -78.75708008 36.3046875 C-79.61330963 36.61245117 -80.46953918 36.92021484 -81.35171509 37.23730469 C-82.22564911 37.55086914 -83.09958313 37.86443359 -84 38.1875 C-84.90044037 38.50960449 -85.80088074 38.83170898 -86.72860718 39.16357422 C-87.64276398 39.48986816 -88.55692078 39.81616211 -89.4987793 40.15234375 C-90.41794632 40.47981598 -91.33711334 40.80728821 -92.28413391 41.14468384 C-93.20486191 41.47205536 -94.1255899 41.79942688 -95.07421875 42.13671875 C-95.99160324 42.46223724 -96.90898773 42.78775574 -97.85417175 43.12313843 C-98.76387222 43.44521271 -99.67357269 43.76728699 -100.61083984 44.09912109 C-101.95900787 44.57523834 -101.95900787 44.57523834 -103.33441162 45.06097412 C-104.21405579 45.37085266 -105.09369995 45.6807312 -106 46 C-107.27306 46.44741547 -107.27306 46.44741547 -108.57183838 46.90386963 C-109.3971405 47.19292175 -110.22244263 47.48197388 -111.07275391 47.77978516 C-111.87850861 48.06090652 -112.68426331 48.34202789 -113.51443481 48.63166809 C-114.29986664 48.90403793 -115.08529846 49.17640778 -115.89453125 49.45703125 C-118.16166992 50.23300659 -118.16166992 50.23300659 -120.47460938 51.0246582 C-121.90611328 51.511521 -123.33761719 51.99838379 -124.8125 52.5 C-126.18083984 52.9746167 -127.54917969 53.4492334 -128.95898438 53.93823242 C-130.21646484 54.36080322 -131.47394531 54.78337402 -132.76953125 55.21875 C-134.40305542 55.7746582 -134.40305542 55.7746582 -136.06958008 56.34179688 C-137.03661865 56.55900391 -138.00365723 56.77621094 -139 57 C-139.95350342 56.87173828 -140.90700684 56.74347656 -141.8894043 56.61132812 C-142.93414917 56.3087207 -142.93414917 56.3087207 -144 56 C-144 55.01 -144 54.02 -144 53 C-142.69635498 52.41226807 -141.39270996 51.82453613 -140.04956055 51.21899414 C-139.2237851 50.85218536 -138.39800964 50.48537659 -137.54721069 50.10745239 C-136.70663116 49.7419931 -135.86605164 49.37653381 -135 49 C-133.57792236 48.42306396 -132.15584473 47.84612793 -130.69067383 47.25170898 C-129.21107178 46.67235596 -127.73146973 46.09300293 -126.20703125 45.49609375 C-125.39034973 45.17610413 -124.57366821 44.8561145 -123.73223877 44.52642822 C-122.88030945 44.19310486 -122.02838013 43.85978149 -121.15063477 43.51635742 C-120.27899689 43.17671967 -119.40735901 42.83708191 -118.50930786 42.4871521 C-117.61936127 42.14076691 -116.72941467 41.79438171 -115.8125 41.4375 C-114.90925995 41.08539459 -114.0060199 40.73328918 -113.07540894 40.37051392 C-112.16356842 40.01532684 -111.25172791 39.66013977 -110.31225586 39.29418945 C-109.39725815 38.93851395 -108.48226044 38.58283844 -107.53953552 38.21638489 C-106.62414505 37.86138412 -105.70875458 37.50638336 -104.765625 37.140625 C-103.85051651 36.78679245 -102.93540802 36.4329599 -101.99256897 36.06840515 C-101.0894548 35.72034317 -100.18634064 35.37228119 -99.25585938 35.01367188 C-98.37164307 34.67408447 -97.48742676 34.33449707 -96.57641602 33.98461914 C-95.72619873 33.65969482 -94.87598145 33.33477051 -94 33 C-92.81168579 32.54935181 -92.81168579 32.54935181 -91.59936523 32.08959961 C-90.84534424 31.80544189 -90.09132324 31.52128418 -89.31445312 31.22851562 C-87.88552734 30.69419922 -86.45660156 30.15988281 -84.984375 29.609375 C-83.63496826 29.10994385 -82.28556152 28.6105127 -80.89526367 28.09594727 C-79.63045166 27.63115967 -78.36563965 27.16637207 -77.0625 26.6875 C-75.87567627 26.25042725 -74.68885254 25.81335449 -73.46606445 25.36303711 C-71.79870239 24.75600952 -71.79870239 24.75600952 -70.09765625 24.13671875 C-69.05496582 23.76337402 -68.01227539 23.3900293 -66.93798828 23.00537109 C-65.96845215 22.67359863 -64.99891602 22.34182617 -64 22 C-63.11683105 21.7313916 -62.23366211 21.4627832 -61.32373047 21.18603516 C-60.49373535 20.94546387 -59.66374023 20.70489258 -58.80859375 20.45703125 C-58.0096167 20.2247583 -57.21063965 19.99248535 -56.38745117 19.75317383 C-55.59959229 19.50462646 -54.8117334 19.2560791 -54 19 C-53.19344971 18.69280029 -52.38689941 18.38560059 -51.5559082 18.0690918 C-50.73823975 17.7369165 -49.92057129 17.40474121 -49.078125 17.0625 C-48.25248047 16.72347656 -47.42683594 16.38445312 -46.57617188 16.03515625 C-45.72603516 15.69355469 -44.87589844 15.35195313 -44 15 C-43.10345703 14.66871094 -42.20691406 14.33742188 -41.28320312 13.99609375 C-40.35958984 13.66738281 -39.43597656 13.33867187 -38.484375 13 C-37.54980469 12.67217529 -36.61523438 12.34435059 -35.65234375 12.0065918 C-34.69457031 11.6744165 -33.73679687 11.34224121 -32.75 11 C-31.74582031 10.65042236 -30.74164062 10.30084473 -29.70703125 9.94067383 C-28.70542969 9.59544678 -27.70382812 9.25021973 -26.671875 8.89453125 C-25.70056641 8.56533691 -24.72925781 8.23614258 -23.72851562 7.89697266 C-22.82810547 7.60097168 -21.92769531 7.3049707 -21 7 C-19.56140625 6.57074219 -18.1228125 6.14148438 -16.640625 5.69921875 C-15.43921875 5.36535156 -14.2378125 5.03148437 -13 4.6875 C-11.92878906 4.39875 -10.85757813 4.11 -9.75390625 3.8125 C-8.39072266 3.4103125 -8.39072266 3.4103125 -7 3 C-5.659375 2.401875 -4.31875 1.80375 -2.9375 1.1875 C-1.968125 0.795625 -0.99875 0.40375 0 0 Z " transform="translate(629,438)" style="fill: #78B630;"/></svg>